<?xml version="1.0" encoding="utf-8"?>
<!-- Generator: Adobe Illustrator 27.7.0, SVG Export Plug-In . SVG Version: 6.00 Build 0)  -->
<svg version="1.1" id="Capa_1" xmlns="http://www.w3.org/2000/svg" xmlns:xlink="http://www.w3.org/1999/xlink" x="0px" y="0px"
	 viewBox="0 0 315 565" style="enable-background:new 0 0 315 565;" xml:space="preserve">
<style type="text/css">
	.st0{fill:#F56A6A;}
</style>
<path class="st0" d="M30.6,420.7L4.5,399.1C86.1,300.3,36.7,218.1,0,177.9L25,155C60.5,193.9,132.1,297.7,30.6,420.7z"/>
<path class="st0" d="M78.9,464.4l-24.6-23.2C192.5,294.3,99.8,173.9,53.5,129l23.6-24.3C118.8,145.2,242.2,290.9,78.9,464.4z"/>
<path class="st0" d="M128.7,512.7l-24.2-23.6c67.4-69.2,100.4-140.5,98.1-212.1C199.4,175.1,124.9,100,102.1,79.4l22.7-25.1
	C150.1,77.2,232.8,160.7,236.4,276C238.9,357.1,202.7,436.8,128.7,512.7z"/>
<path class="st0" d="M183,565l-24.3-23.5c84.1-86.8,125.2-176.6,122.4-266.8C276.9,146.1,183.1,51.1,154.5,25l22.8-25
	c39.9,36.3,133.2,135.6,137.6,273.6C318,373.3,273.6,471.3,183,565z"/>
</svg>
