<?xml version="1.0" encoding="utf-8"?>
<!-- Generator: Adobe Illustrator 27.7.0, SVG Export Plug-In . SVG Version: 6.00 Build 0)  -->
<svg version="1.1" id="Capa_1" xmlns="http://www.w3.org/2000/svg" xmlns:xlink="http://www.w3.org/1999/xlink" x="0px" y="0px"
	 viewBox="0 0 1900 224" style="enable-background:new 0 0 1900 224;" xml:space="preserve">
<style type="text/css">
	.st0{fill:#F9CAC5;stroke:#000000;stroke-miterlimit:10;}
	.st1{fill:#0B3337;}
	.st2{fill:#F9CAC5;}
	.st3{font-family:'CircularStd-Medium';}
	.st4{font-size:18.3736px;}
</style>
<rect x="-5" y="-4.8" class="st0" width="1912.6" height="235.6"/>
<rect x="416.8" class="st1" width="1075.2" height="224"/>
<path class="st2" d="M489.9,176v-17.7h2.2v2.9c1-2.2,3.2-3.5,5.6-3.4c2.7,0,4.9,1.5,5.6,4c1-2.5,3.4-4.1,6.1-4
	c3.5,0,6.1,2.4,6.1,6.5V176h-2.2v-11.5c0-2.7-1.6-4.8-4.5-4.8s-4.9,2.5-4.9,5.3V176h-2.2v-11.5c0-2.7-1.5-4.8-4.5-4.8
	c-3,0-4.9,2.4-4.9,5.3V176L489.9,176z"/>
<path class="st2" d="M525.9,176.5c-4.5,0-6.6-3.4-6.6-7.1v-11.1h2.2V169c0,2.8,1.3,5.4,4.8,5.4c3.2,0,5-2.4,5-5.4v-10.8h2.2v14.3
	c0,1.1,0.1,2.2,0.2,3.4h-2.1c-0.1-0.8-0.2-1.7-0.2-2.5v-0.3C530.4,175.3,528.2,176.6,525.9,176.5z"/>
<path class="st2" d="M540,176h-2.2v-17.7h2.2v2.8c1.1-2.1,3.4-3.4,5.8-3.3c4.2,0,6.3,3,6.3,6.6V176h-2.2v-11.2c0-2.8-1.4-5-4.8-5
	c-3.1,0-4.9,2.6-4.9,5.6L540,176z"/>
<path class="st2" d="M569.1,172.5c-1.1,2.5-3.5,4-6.2,4c-5,0-8.2-4.1-8.2-9.4s3.3-9.3,8.2-9.3c3.8,0,5.5,2.3,6.2,3.8v-12.4h2.2v23.5
	c0,1.1,0,2.2,0.2,3.4h-2.2c-0.1-0.9-0.2-1.9-0.2-2.8L569.1,172.5z M563,174.4c3.7,0,6-3.2,6-7.4s-2.3-7.3-6-7.3
	c-3.6,0-6.2,3.1-6.2,7.3C556.9,171.3,559.3,174.5,563,174.4L563,174.4z"/>
<path class="st2" d="M574.1,171.4c0-3,2.1-4.8,5.3-5.2l4.7-0.7c1.5-0.2,1.9-0.9,1.9-1.7c0-2.3-1.6-4-4.5-4s-4.7,1.6-5,4.1l-2.1-0.4
	c0.4-3.4,3.2-5.6,7-5.6c4.6,0,6.7,2.8,6.7,6.2v9c0,1,0.1,2,0.3,3.1h-2.2c-0.2-1-0.2-2-0.2-3.1c-0.8,1.7-2.9,3.5-6.2,3.5
	C576.2,176.4,574.1,174,574.1,171.4z M586,168.7v-2c-0.4,0.2-0.8,0.4-1.3,0.4l-4.9,0.7c-2.1,0.3-3.4,1.4-3.4,3.4
	c0,1.6,1.3,3.2,3.8,3.2C583.6,174.5,586,172.3,586,168.7L586,168.7z"/>
<path class="st2" d="M594.5,176h-2.2v-17.7h2.2v2.8c1.1-2.1,3.4-3.4,5.8-3.3c4.2,0,6.3,3,6.3,6.6V176h-2.2v-11.2c0-2.8-1.4-5-4.8-5
	c-3.1,0-4.9,2.6-4.9,5.6L594.5,176z"/>
<path class="st2" d="M609.1,171.4c0-3,2.1-4.8,5.3-5.2l4.7-0.7c1.5-0.2,1.9-0.9,1.9-1.7c0-2.3-1.6-4-4.5-4c-2.9,0-4.7,1.6-5,4.1
	l-2.1-0.4c0.4-3.4,3.2-5.6,7-5.6c4.6,0,6.7,2.8,6.7,6.2v9c0,1,0.1,2,0.3,3.1h-2.2c-0.2-1-0.2-2-0.2-3.1c-0.8,1.7-2.9,3.5-6.2,3.5
	C611.2,176.4,609.1,174,609.1,171.4z M621,168.7v-2c-0.4,0.2-0.8,0.4-1.3,0.4l-4.9,0.7c-2.1,0.3-3.4,1.4-3.4,3.4
	c0,1.6,1.3,3.2,3.8,3.2C618.6,174.5,621,172.3,621,168.7L621,168.7z"/>
<path class="st2" d="M535.9,116.5l-4.3-3.5c13.4-16.2,5.3-29.7-0.7-36.3l4.1-3.7C540.8,79.3,552.5,96.3,535.9,116.5z"/>
<path class="st2" d="M543.8,123.6l-4-3.8c22.7-24.1,7.5-43.8-0.1-51.2l3.9-4C550.3,71.3,570.6,95.2,543.8,123.6z"/>
<path class="st2" d="M552,131.6l-4-3.9c11-11.3,16.5-23,16.1-34.7c-0.5-16.7-12.7-29-16.5-32.4l3.7-4.1c4.1,3.7,17.7,17.4,18.3,36.3
	C570,106.1,564.1,119.1,552,131.6z"/>
<path class="st2" d="M560.9,140.1l-4-3.9c13.8-14.2,20.5-28.9,20.1-43.7c-0.7-21.1-16-36.6-20.7-40.9l3.7-4.1
	c6.5,5.9,21.8,22.2,22.6,44.9C583,108.7,575.7,124.8,560.9,140.1z"/>
<path class="st2" d="M773.9,59.6c-0.2-0.2-0.4-0.4-0.6-0.5c-0.3-0.2-0.6-0.4-1-0.5c-0.4-0.2-0.8-0.3-1.2-0.4
	c-0.4-0.1-0.9-0.2-1.4-0.2c-0.8-0.1-1.6,0.1-2.2,0.6c-0.5,0.4-0.8,0.9-0.7,1.6c0,0.4,0.1,0.8,0.4,1.2c0.4,0.3,0.8,0.6,1.3,0.7
	c0.6,0.2,1.3,0.4,2.1,0.6c0.9,0.2,1.8,0.5,2.7,0.9c0.7,0.3,1.3,0.8,1.8,1.4c0.4,0.7,0.7,1.4,0.6,2.2c0,0.7-0.1,1.4-0.4,2
	c-0.3,0.6-0.7,1-1.2,1.4c-0.5,0.4-1.2,0.6-1.8,0.8c-0.7,0.2-1.5,0.3-2.2,0.3c-0.8,0-1.5-0.1-2.3-0.2c-0.7-0.2-1.5-0.4-2.2-0.7
	c-0.7-0.3-1.3-0.7-1.9-1.1l1.1-2.1c0.2,0.2,0.5,0.5,0.8,0.6c0.4,0.2,0.8,0.5,1.2,0.6c0.5,0.2,1,0.4,1.5,0.5c0.6,0.1,1.1,0.2,1.7,0.2
	c0.8,0.1,1.6-0.1,2.2-0.5c0.5-0.3,0.8-0.9,0.8-1.5c0-0.5-0.2-0.9-0.5-1.2c-0.4-0.4-0.9-0.6-1.5-0.8c-0.6-0.2-1.4-0.4-2.2-0.6
	c-0.9-0.2-1.7-0.5-2.5-0.9c-0.6-0.3-1.1-0.7-1.5-1.3c-0.4-0.6-0.5-1.3-0.5-2c0-0.9,0.2-1.8,0.7-2.6c0.5-0.7,1.2-1.3,2-1.6
	c0.9-0.4,1.9-0.6,2.8-0.6c0.7,0,1.3,0.1,2,0.2c0.6,0.1,1.2,0.3,1.8,0.6c0.5,0.2,1,0.5,1.4,0.9L773.9,59.6z"/>
<path class="st2" d="M777.7,58.2v-2.6h2.4v2.6H777.7z M777.7,71.4V60.1h2.4v11.3L777.7,71.4z"/>
<path class="st2" d="M794.6,70.9c-0.2,0.1-0.4,0.2-0.8,0.3c-0.3,0.1-0.7,0.2-1,0.3c-0.4,0.1-0.8,0.1-1.2,0.1c-0.5,0-0.9-0.1-1.4-0.3
	c-0.4-0.2-0.8-0.5-1-0.8c-0.3-0.4-0.4-0.9-0.4-1.4V62h-1.5v-1.8h1.5v-3.7h2.4v3.7h2.5V62h-2.5v6.3c0,0.3,0.1,0.6,0.4,0.9
	c0.2,0.2,0.5,0.3,0.8,0.3c0.3,0,0.7-0.1,1-0.2c0.3-0.1,0.5-0.2,0.6-0.3L794.6,70.9z"/>
<path class="st2" d="M801.3,71.6c-0.8,0-1.6-0.1-2.4-0.5c-2.1-0.9-3.5-3-3.5-5.3c0-1,0.2-2,0.7-2.9c0.5-0.9,1.2-1.6,2.1-2.1
	c0.9-0.5,2-0.8,3.1-0.8c1.1,0,2.2,0.2,3.1,0.8c0.8,0.5,1.5,1.2,2,2.1c0.5,0.9,0.7,1.8,0.7,2.8c0,0.2,0,0.3,0,0.5c0,0.2,0,0.3,0,0.4
	h-9.1c0,0.6,0.2,1.2,0.6,1.7c0.3,0.5,0.7,0.9,1.2,1.2c0.5,0.3,1,0.4,1.6,0.4c0.6,0,1.3-0.2,1.8-0.5c0.5-0.3,0.9-0.7,1.2-1.3l2,0.6
	c-0.3,0.6-0.6,1.1-1.1,1.5c-0.5,0.5-1.1,0.8-1.8,1C802.8,71.5,802,71.6,801.3,71.6z M797.9,65h6.8c-0.1-0.6-0.2-1.2-0.6-1.7
	c-0.3-0.5-0.7-0.9-1.2-1.1c-1-0.6-2.3-0.6-3.3,0c-0.5,0.3-0.9,0.7-1.2,1.1C798.1,63.8,797.9,64.4,797.9,65L797.9,65z"/>
<path class="st2" d="M818.9,71.6c-0.7,0-1.4-0.1-2.1-0.5c-0.6-0.3-1.2-0.7-1.6-1.3c-0.5-0.5-0.8-1.2-1.1-1.8
	c-0.2-0.7-0.4-1.4-0.4-2.2c0-0.8,0.1-1.5,0.4-2.3c0.2-0.7,0.6-1.3,1.1-1.9c0.5-0.5,1-1,1.7-1.3c0.7-0.3,1.4-0.5,2.1-0.5
	c0.8,0,1.7,0.2,2.4,0.6c0.7,0.4,1.3,1,1.7,1.7v-2.1h2.1v10.9c0,1-0.2,2-0.8,2.8c-0.5,0.8-1.3,1.4-2.2,1.7c-1,0.4-2,0.6-3.1,0.6
	c-1.1,0-2.2-0.2-3.1-0.6c-0.8-0.4-1.5-1-2.1-1.8l1.3-1.3c0.4,0.6,1,1.1,1.7,1.4c0.7,0.3,1.4,0.5,2.2,0.5c0.6,0,1.2-0.1,1.8-0.3
	c0.5-0.2,1-0.6,1.3-1.1c0.4-0.5,0.5-1.2,0.5-1.8v-1.7c-0.4,0.7-1,1.2-1.7,1.6C820.4,71.4,819.6,71.6,818.9,71.6z M819.6,69.7
	c0.4,0,0.7-0.1,1-0.2c0.3-0.1,0.6-0.3,0.9-0.5c0.3-0.2,0.5-0.4,0.7-0.7c0.2-0.3,0.3-0.5,0.4-0.8v-3c-0.3-0.9-1-1.7-1.9-2.1
	c-0.4-0.2-0.9-0.3-1.3-0.3c-0.5,0-1,0.1-1.4,0.3c-0.4,0.2-0.8,0.5-1.1,0.9c-0.6,0.8-0.9,1.7-0.9,2.7c0,0.5,0.1,1,0.3,1.4
	c0.2,0.4,0.4,0.9,0.7,1.2c0.3,0.3,0.7,0.6,1.1,0.8C818.7,69.6,819.2,69.7,819.6,69.7L819.6,69.7z"/>
<path class="st2" d="M827.9,67v-6.9h2.4v6.4c0,0.8,0.1,1.6,0.6,2.2c0.4,0.5,1,0.8,1.6,0.8c0.5,0,0.9-0.1,1.3-0.3
	c0.4-0.2,0.8-0.5,1.2-0.8c0.4-0.4,0.7-0.8,0.9-1.3v-7h2.4v8.6c0,0.2,0,0.4,0.2,0.6c0.1,0.1,0.3,0.2,0.5,0.2v1.9
	c-0.2,0-0.4,0.1-0.6,0.1c-0.2,0-0.3,0-0.4,0c-0.4,0-0.8-0.1-1.1-0.4c-0.3-0.2-0.5-0.5-0.5-0.9l0-1.1c-0.5,0.8-1.2,1.4-2,1.8
	c-0.8,0.4-1.7,0.7-2.7,0.6c-1,0.1-2-0.4-2.7-1.2C828.1,69.4,827.8,68.2,827.9,67z"/>
<path class="st2" d="M845.2,71.6c-0.9,0-1.8-0.2-2.7-0.5c-0.8-0.3-1.6-0.8-2.2-1.4l0.9-1.6c0.6,0.5,1.3,0.9,2,1.2
	c0.6,0.3,1.3,0.4,2,0.4c0.6,0,1.1-0.1,1.6-0.4c0.4-0.2,0.7-0.6,0.6-1.1c0-0.3-0.1-0.6-0.3-0.8c-0.3-0.2-0.6-0.4-1-0.4
	c-0.4-0.1-0.9-0.3-1.5-0.4c-0.7-0.2-1.4-0.5-2-0.8c-0.5-0.2-0.9-0.6-1.2-1c-0.3-0.4-0.4-1-0.4-1.5c0-0.7,0.2-1.3,0.6-1.8
	c0.4-0.5,0.9-0.9,1.6-1.2c0.7-0.3,1.5-0.4,2.3-0.4c0.8,0,1.6,0.1,2.3,0.4c0.7,0.2,1.3,0.7,1.9,1.2l-1,1.6c-0.4-0.4-1-0.8-1.5-1
	c-0.5-0.2-1.1-0.3-1.7-0.3c-0.3,0-0.7,0-1,0.1c-0.3,0.1-0.6,0.2-0.8,0.4c-0.2,0.2-0.3,0.5-0.3,0.9c0,0.3,0.1,0.5,0.3,0.7
	c0.2,0.2,0.5,0.4,0.8,0.5c0.3,0.1,0.8,0.3,1.3,0.4c0.8,0.2,1.5,0.5,2.2,0.8c0.5,0.2,1,0.5,1.4,1c0.4,0.5,0.5,1,0.5,1.6
	c0,1-0.4,1.9-1.2,2.5C847.5,71.4,846.4,71.7,845.2,71.6z"/>
<path class="st2" d="M858.1,70.9c-0.2,0.1-0.4,0.2-0.8,0.3c-0.3,0.1-0.7,0.2-1,0.3c-0.4,0.1-0.8,0.1-1.2,0.1c-0.5,0-0.9-0.1-1.4-0.3
	c-0.4-0.2-0.8-0.5-1-0.8c-0.3-0.4-0.4-0.9-0.4-1.4V62h-1.5v-1.8h1.5v-3.7h2.4v3.7h2.5V62h-2.5v6.3c0,0.3,0.1,0.6,0.4,0.9
	c0.2,0.2,0.5,0.3,0.8,0.3c0.3,0,0.7-0.1,1-0.2c0.3-0.1,0.5-0.2,0.6-0.3L858.1,70.9z"/>
<path class="st2" d="M858.9,68.1c0-0.7,0.2-1.3,0.6-1.9c0.4-0.6,1-1,1.7-1.2c0.8-0.3,1.6-0.5,2.5-0.4c0.5,0,1,0,1.5,0.1
	c0.5,0.1,0.9,0.2,1.4,0.3v-0.7c0-0.7-0.2-1.4-0.7-1.8c-0.6-0.5-1.3-0.7-2.1-0.7c-0.6,0-1.2,0.1-1.8,0.3c-0.6,0.3-1.2,0.6-1.8,1
	l-0.8-1.6c0.7-0.5,1.4-0.9,2.2-1.1c0.8-0.3,1.6-0.4,2.4-0.4c1.3-0.1,2.6,0.4,3.6,1.2c0.9,0.9,1.4,2.1,1.3,3.4v4.2
	c0,0.2,0,0.4,0.2,0.6c0.1,0.1,0.3,0.2,0.5,0.2v1.9c-0.2,0-0.4,0.1-0.6,0.1l-0.4,0c-0.4,0-0.8-0.1-1.2-0.4c-0.2-0.2-0.4-0.5-0.5-0.9
	l-0.1-0.7c-0.5,0.6-1.1,1.2-1.9,1.5c-0.7,0.3-1.5,0.5-2.3,0.5c-0.7,0-1.4-0.1-2-0.5c-0.6-0.3-1-0.7-1.4-1.3
	C859.1,69.3,858.9,68.7,858.9,68.1z M866.2,68.8c0.1-0.2,0.3-0.4,0.4-0.6c0.1-0.2,0.2-0.3,0.2-0.5v-1.3c-0.4-0.2-0.8-0.3-1.3-0.4
	c-0.4-0.1-0.9-0.1-1.3-0.1c-0.7,0-1.5,0.1-2.1,0.5c-0.5,0.3-0.8,0.8-0.8,1.4c0,0.3,0.1,0.6,0.3,0.9c0.2,0.3,0.5,0.6,0.8,0.7
	c0.4,0.2,0.8,0.3,1.2,0.3c0.5,0,1-0.1,1.5-0.3C865.4,69.4,865.8,69.1,866.2,68.8L866.2,68.8z"/>
<path class="st2" d="M877.4,55.6h2.4v12.6c-0.1,0.4,0,0.8,0.3,1.1c0.2,0.2,0.4,0.3,0.6,0.3c0.3,0,0.5,0,0.8-0.1
	c0.3-0.1,0.5-0.1,0.7-0.2l0.3,1.9c-0.4,0.2-0.8,0.3-1.2,0.4c-0.4,0.1-0.8,0.1-1.3,0.2c-1.3,0.1-2.5-0.8-2.6-2.1c0-0.2,0-0.3,0-0.5
	L877.4,55.6z"/>
<path class="st2" d="M888.9,71.6c-0.8,0-1.6-0.1-2.4-0.5c-0.7-0.3-1.3-0.7-1.8-1.3c-0.5-0.5-0.9-1.2-1.2-1.9
	c-0.3-0.7-0.4-1.4-0.4-2.2c0-0.8,0.1-1.5,0.4-2.2c0.3-0.7,0.7-1.3,1.2-1.9c0.5-0.5,1.1-1,1.8-1.3c0.8-0.3,1.6-0.5,2.4-0.5
	c0.8,0,1.6,0.1,2.4,0.5c1.4,0.6,2.5,1.7,3,3.1c0.3,0.7,0.4,1.5,0.4,2.2c0,0.8-0.1,1.5-0.4,2.2c-0.3,0.7-0.7,1.3-1.2,1.9
	c-0.5,0.5-1.1,1-1.8,1.3C890.6,71.5,889.8,71.6,888.9,71.6z M885.6,65.8c0,0.7,0.1,1.3,0.5,1.9c0.3,0.5,0.7,1,1.2,1.3
	c0.5,0.3,1.1,0.5,1.7,0.5c0.6,0,1.2-0.2,1.7-0.5c0.5-0.3,0.9-0.8,1.2-1.4c0.6-1.2,0.6-2.6,0-3.9c-0.3-0.6-0.7-1-1.2-1.4
	c-0.5-0.3-1.1-0.5-1.7-0.5c-0.6,0-1.2,0.2-1.7,0.5c-0.5,0.3-0.9,0.8-1.2,1.4C885.7,64.5,885.6,65.1,885.6,65.8L885.6,65.8z"/>
<path class="st2" d="M906.6,71.6c-0.7,0-1.4-0.1-2-0.5c-0.6-0.3-1.2-0.7-1.6-1.3c-0.5-0.6-0.8-1.2-1-1.9c-0.2-0.7-0.4-1.5-0.4-2.2
	c0-0.8,0.1-1.5,0.4-2.2c0.3-0.7,0.6-1.3,1.1-1.8c0.5-0.5,1-0.9,1.7-1.2c0.7-0.3,1.4-0.5,2.1-0.4c0.8,0,1.6,0.2,2.4,0.6
	c0.7,0.4,1.3,0.9,1.7,1.6v-2.1h2.1V76h-2.4v-6.7C909.8,70.8,908.2,71.7,906.6,71.6z M907.4,69.6c0.4,0,0.9-0.1,1.3-0.3
	c0.4-0.2,0.7-0.4,1.1-0.8c0.3-0.3,0.6-0.7,0.8-1.1v-3c-0.1-0.3-0.2-0.7-0.4-1c-0.2-0.3-0.5-0.6-0.8-0.8c-0.3-0.2-0.6-0.4-1-0.6
	c-0.8-0.3-1.7-0.3-2.4,0.1c-0.4,0.2-0.8,0.5-1.1,0.9c-0.3,0.4-0.5,0.8-0.7,1.2c-0.2,0.5-0.3,0.9-0.3,1.4c0,0.7,0.1,1.3,0.4,1.9
	c0.3,0.6,0.7,1,1.2,1.4C906.2,69.4,906.8,69.6,907.4,69.6z"/>
<path class="st2" d="M915.7,67v-6.9h2.4v6.4c0,0.8,0.1,1.6,0.6,2.2c0.4,0.5,1,0.8,1.6,0.8c0.5,0,0.9-0.1,1.3-0.3
	c0.4-0.2,0.8-0.5,1.2-0.8c0.4-0.4,0.7-0.8,0.9-1.3v-7h2.4v8.6c0,0.2,0,0.4,0.2,0.6c0.1,0.1,0.3,0.2,0.5,0.2v1.9
	c-0.2,0-0.4,0.1-0.6,0.1c-0.2,0-0.3,0-0.4,0c-0.4,0-0.8-0.1-1.1-0.4c-0.3-0.2-0.5-0.5-0.5-0.9l0-1.1c-0.5,0.8-1.2,1.4-2,1.8
	c-0.8,0.4-1.7,0.7-2.7,0.6c-1,0.1-2-0.4-2.7-1.2C916,69.4,915.7,68.2,915.7,67z"/>
<path class="st2" d="M934.2,71.6c-0.8,0-1.6-0.1-2.4-0.5c-2.1-0.9-3.5-3-3.5-5.3c0-1,0.2-2,0.7-2.9c0.5-0.9,1.2-1.6,2.1-2.1
	c0.9-0.5,2-0.8,3.1-0.8c1.1,0,2.2,0.2,3.1,0.8c0.8,0.5,1.5,1.2,2,2.1c0.5,0.9,0.7,1.8,0.7,2.8c0,0.2,0,0.3,0,0.5c0,0.2,0,0.3,0,0.4
	h-9.1c0,0.6,0.2,1.2,0.6,1.7c0.3,0.5,0.7,0.9,1.2,1.2c0.5,0.3,1,0.4,1.6,0.4c0.6,0,1.3-0.2,1.8-0.5c0.5-0.3,0.9-0.7,1.2-1.3l2,0.6
	c-0.3,0.6-0.6,1.1-1.1,1.5c-0.5,0.5-1.1,0.8-1.8,1C935.7,71.5,935,71.6,934.2,71.6z M930.8,65h6.8c0-0.6-0.2-1.2-0.6-1.7
	c-0.3-0.5-0.7-0.9-1.2-1.1c-0.5-0.3-1.1-0.4-1.6-0.4c-0.6,0-1.2,0.1-1.7,0.4c-0.5,0.3-0.9,0.7-1.2,1.1C931,63.8,930.8,64.4,930.8,65
	L930.8,65z"/>
<path class="st2" d="M957.5,71.4h-2.4v-6.3c0.1-0.8-0.1-1.6-0.6-2.2c-0.4-0.5-1-0.8-1.6-0.8c-0.5,0-0.9,0.1-1.3,0.3
	c-0.4,0.2-0.8,0.5-1.2,0.9c-0.3,0.4-0.6,0.9-0.8,1.4v6.7h-2.4V55.6h2.4v6.8c0.4-0.7,1-1.4,1.8-1.8c0.7-0.4,1.6-0.6,2.4-0.6
	c0.6,0,1.2,0.1,1.8,0.4c0.4,0.2,0.8,0.6,1.1,1c0.3,0.4,0.5,0.9,0.6,1.5c0.1,0.6,0.2,1.2,0.2,1.8L957.5,71.4z"/>
<path class="st2" d="M959.4,68.1c0-0.7,0.2-1.3,0.6-1.9c0.4-0.6,1-1,1.7-1.2c0.8-0.3,1.6-0.5,2.5-0.4c0.5,0,1,0,1.5,0.1
	c0.5,0.1,1,0.2,1.4,0.3v-0.7c0-0.7-0.2-1.4-0.7-1.8c-0.6-0.5-1.3-0.7-2.1-0.7c-0.6,0-1.2,0.1-1.8,0.3c-0.6,0.3-1.2,0.6-1.8,1
	l-0.8-1.6c0.7-0.5,1.4-0.9,2.2-1.1c0.8-0.3,1.6-0.4,2.4-0.4c1.3-0.1,2.6,0.3,3.6,1.2c0.9,0.9,1.4,2.1,1.3,3.4v4.2
	c0,0.2,0,0.4,0.2,0.6c0.1,0.1,0.3,0.2,0.5,0.2v1.9c-0.2,0-0.4,0.1-0.6,0.1l-0.4,0c-0.4,0-0.8-0.1-1.2-0.4c-0.3-0.2-0.4-0.5-0.5-0.9
	l-0.1-0.7c-0.5,0.7-1.1,1.2-1.9,1.5c-0.7,0.3-1.5,0.5-2.3,0.5c-0.7,0-1.4-0.1-2-0.5c-0.6-0.3-1-0.7-1.4-1.3
	C959.6,69.4,959.4,68.8,959.4,68.1z M966.6,68.8c0.1-0.2,0.3-0.4,0.4-0.6c0.1-0.2,0.2-0.3,0.2-0.5v-1.3c-0.4-0.2-0.8-0.3-1.3-0.4
	c-0.4-0.1-0.9-0.1-1.3-0.1c-0.7,0-1.5,0.1-2.1,0.5c-0.5,0.3-0.8,0.8-0.8,1.4c0,0.3,0.1,0.6,0.3,0.9c0.2,0.3,0.5,0.6,0.8,0.7
	c0.4,0.2,0.8,0.3,1.2,0.3C964.9,69.9,965.9,69.5,966.6,68.8L966.6,68.8z"/>
<path class="st2" d="M977.6,71.6c-0.8,0-1.6-0.1-2.4-0.5c-0.7-0.3-1.3-0.7-1.8-1.3c-1-1.1-1.6-2.6-1.6-4.1c0-1,0.2-2,0.7-2.9
	c0.5-0.9,1.2-1.6,2-2.1c0.9-0.5,2-0.8,3.1-0.8c1.1,0,2.1,0.2,3,0.8c0.8,0.5,1.5,1.2,1.9,2l-2.3,0.7c-0.3-0.5-0.6-0.9-1.1-1.1
	c-0.5-0.3-1-0.4-1.6-0.4c-0.6,0-1.2,0.2-1.7,0.5c-0.5,0.3-0.9,0.8-1.2,1.3c-0.3,0.6-0.5,1.3-0.4,2c0,0.7,0.1,1.3,0.5,1.9
	c0.3,0.6,0.7,1,1.2,1.4c0.5,0.3,1.1,0.5,1.7,0.5c0.4,0,0.8-0.1,1.1-0.2c0.4-0.1,0.7-0.3,1-0.6c0.3-0.2,0.5-0.5,0.6-0.8l2.3,0.7
	c-0.3,0.6-0.6,1.1-1.1,1.5c-0.5,0.4-1.1,0.8-1.7,1C979.1,71.5,978.3,71.6,977.6,71.6z"/>
<path class="st2" d="M989.6,71.6c-0.8,0-1.6-0.1-2.4-0.5c-0.7-0.3-1.3-0.7-1.8-1.3c-1.1-1.1-1.6-2.5-1.6-4.1c0-1,0.2-2,0.7-2.9
	c0.5-0.9,1.2-1.6,2.1-2.1c0.9-0.5,2-0.8,3.1-0.8c1.1,0,2.2,0.2,3.1,0.8c0.8,0.5,1.5,1.2,2,2.1c0.5,0.9,0.7,1.8,0.7,2.8
	c0,0.2,0,0.3,0,0.5c0,0.2,0,0.3,0,0.4h-9.1c0,0.6,0.2,1.2,0.6,1.7c0.3,0.5,0.7,0.9,1.2,1.2c0.5,0.3,1,0.4,1.6,0.4
	c0.6,0,1.3-0.2,1.8-0.5c0.5-0.3,0.9-0.7,1.2-1.3l2,0.6c-0.3,0.6-0.6,1.1-1.1,1.5c-0.5,0.5-1.1,0.8-1.8,1
	C991.1,71.5,990.3,71.6,989.6,71.6z M986.2,65h6.8c0-0.6-0.2-1.2-0.6-1.7c-1-1.5-3-2-4.5-1.1C986.9,62.8,986.2,63.8,986.2,65
	L986.2,65z"/>
<path class="st2" d="M1014.7,71.4h-2.4v-6.3c0.1-0.8-0.1-1.6-0.6-2.3c-0.4-0.5-0.9-0.8-1.5-0.7c-0.7,0-1.3,0.3-1.8,0.7
	c-0.6,0.5-1,1.2-1.2,1.9v6.6h-2.4v-6.3c0.1-0.8-0.1-1.6-0.5-2.3c-0.4-0.5-0.9-0.8-1.5-0.7c-0.7,0-1.3,0.3-1.8,0.7
	c-0.6,0.5-1,1.2-1.2,1.9v6.7h-2.4V60.2h2.2v2.2c0.4-0.7,1-1.4,1.8-1.8c0.8-0.4,1.6-0.6,2.5-0.6c0.8,0,1.6,0.2,2.2,0.7
	c0.5,0.5,0.9,1.1,1,1.8c0.4-0.8,1-1.4,1.8-1.9c0.7-0.4,1.6-0.7,2.5-0.7c0.6,0,1.2,0.1,1.7,0.4c0.4,0.2,0.8,0.6,1,1
	c0.3,0.5,0.5,0.9,0.6,1.5c0.1,0.6,0.2,1.2,0.2,1.7L1014.7,71.4z"/>
<path class="st2" d="M1022.5,71.6c-0.8,0-1.6-0.1-2.4-0.5c-0.7-0.3-1.3-0.7-1.8-1.3c-0.5-0.5-0.9-1.2-1.2-1.9
	c-0.3-0.7-0.4-1.4-0.4-2.2c0-0.8,0.1-1.5,0.4-2.2c0.3-0.7,0.7-1.3,1.2-1.9c0.5-0.5,1.1-1,1.8-1.3c0.8-0.3,1.6-0.5,2.4-0.5
	c0.8,0,1.6,0.1,2.4,0.5c1.4,0.6,2.5,1.7,3,3.1c0.3,0.7,0.4,1.5,0.4,2.2c0,0.8-0.1,1.5-0.4,2.2c-0.3,0.7-0.7,1.3-1.2,1.9
	c-0.5,0.5-1.1,1-1.8,1.3C1024.1,71.5,1023.3,71.6,1022.5,71.6z M1019.2,65.8c0,0.7,0.1,1.3,0.5,1.9c0.3,0.5,0.7,1,1.2,1.3
	c0.5,0.3,1.1,0.5,1.7,0.5c0.6,0,1.2-0.2,1.7-0.5c0.5-0.3,0.9-0.8,1.2-1.4c0.6-1.2,0.6-2.6,0-3.9c-0.3-0.6-0.7-1-1.2-1.4
	c-0.5-0.3-1.1-0.5-1.7-0.5c-0.6,0-1.2,0.2-1.7,0.5c-0.5,0.3-0.9,0.8-1.2,1.4C1019.3,64.5,1019.1,65.1,1019.2,65.8L1019.2,65.8z"/>
<path class="st2" d="M1034.5,71.6c-0.9,0-1.8-0.2-2.7-0.5c-0.8-0.3-1.6-0.8-2.2-1.4l0.9-1.6c0.6,0.5,1.3,0.9,2,1.2
	c0.6,0.3,1.3,0.4,2,0.4c0.6,0,1.1-0.1,1.6-0.4c0.4-0.2,0.6-0.6,0.6-1.1c0-0.3-0.1-0.6-0.3-0.8c-0.3-0.2-0.6-0.4-1-0.4
	c-0.4-0.1-0.9-0.3-1.5-0.4c-0.7-0.2-1.4-0.5-2-0.8c-0.5-0.2-0.9-0.6-1.2-1c-0.3-0.4-0.4-1-0.4-1.5c0-0.7,0.2-1.3,0.6-1.8
	c0.4-0.5,0.9-0.9,1.6-1.2c0.7-0.3,1.5-0.4,2.3-0.4c0.8,0,1.6,0.1,2.3,0.4c0.7,0.2,1.3,0.7,1.9,1.2l-1,1.6c-0.4-0.4-1-0.8-1.5-1
	c-0.5-0.2-1.1-0.3-1.7-0.3c-0.3,0-0.7,0-1,0.1c-0.3,0.1-0.6,0.2-0.8,0.4c-0.2,0.2-0.3,0.5-0.3,0.9c0,0.3,0.1,0.5,0.3,0.7
	c0.2,0.2,0.5,0.4,0.8,0.5c0.3,0.1,0.8,0.3,1.3,0.4c0.8,0.2,1.5,0.5,2.2,0.8c0.5,0.2,1,0.5,1.4,1c0.4,0.5,0.5,1,0.5,1.6
	c0,1-0.4,1.9-1.2,2.5C1036.8,71.4,1035.6,71.7,1034.5,71.6z"/>
<path class="st2" d="M773.8,97.4h-0.7v-6.3c0-1.5-0.2-2.6-0.7-3.4c-0.4-0.7-1.2-1.1-2.1-1.1c-0.7,0-1.4,0.2-2,0.5
	c-0.6,0.3-1.2,0.8-1.7,1.3c-0.5,0.5-0.8,1.2-1,1.9v7h-0.7V86.2h0.7V89c0.3-0.6,0.7-1.1,1.2-1.5c0.5-0.4,1.1-0.8,1.7-1
	c0.6-0.2,1.3-0.4,1.9-0.4c0.5,0,1.1,0.1,1.5,0.3c0.4,0.2,0.8,0.5,1,1c0.3,0.5,0.5,1,0.6,1.6c0.1,0.7,0.2,1.5,0.2,2.2L773.8,97.4z"/>
<path class="st2" d="M781.8,97.6c-0.7,0-1.5-0.1-2.1-0.5c-0.7-0.3-1.2-0.7-1.7-1.3c-1-1.1-1.6-2.6-1.6-4.1c0-0.8,0.1-1.5,0.4-2.2
	c0.3-0.7,0.7-1.3,1.2-1.9c0.5-0.5,1.1-1,1.7-1.3c1.3-0.6,2.9-0.6,4.2,0c0.7,0.3,1.2,0.7,1.7,1.3c0.5,0.5,0.9,1.2,1.2,1.9
	c0.6,1.4,0.6,3,0,4.5c-0.3,0.7-0.7,1.3-1.2,1.9c-0.5,0.5-1.1,1-1.7,1.3C783.3,97.5,782.5,97.6,781.8,97.6z M777.1,91.8
	c0,0.9,0.2,1.8,0.6,2.6c0.4,0.7,1,1.4,1.7,1.8c1.4,0.9,3.3,0.9,4.7,0c0.7-0.5,1.3-1.1,1.7-1.9c0.4-0.8,0.6-1.7,0.6-2.6
	c0-0.9-0.2-1.8-0.6-2.5c-0.4-0.8-1-1.4-1.7-1.9c-0.7-0.5-1.5-0.7-2.3-0.7c-0.8,0-1.6,0.2-2.3,0.7C778,88.4,777.1,90.1,777.1,91.8
	L777.1,91.8z"/>
<path class="st2" d="M793.3,97.6c-0.8,0-1.6-0.1-2.4-0.4c-0.8-0.3-1.4-0.8-2-1.4l0.4-0.5c0.5,0.5,1.2,1,1.9,1.3
	c0.7,0.3,1.4,0.4,2.1,0.4c0.9,0.1,1.8-0.2,2.6-0.7c0.6-0.4,1-1.1,1-1.9c0-0.4-0.1-0.9-0.4-1.2c-0.4-0.3-0.8-0.6-1.3-0.7
	c-0.6-0.2-1.2-0.4-2-0.6c-0.7-0.2-1.3-0.4-1.9-0.6c-0.5-0.2-0.9-0.4-1.2-0.8c-0.3-0.4-0.4-0.9-0.4-1.4c0-0.7,0.2-1.3,0.6-1.8
	c0.4-0.5,0.9-0.8,1.5-1c0.6-0.2,1.3-0.4,2-0.3c0.8,0,1.6,0.1,2.3,0.5c0.6,0.2,1.1,0.6,1.4,1.1l-0.5,0.4c-0.3-0.5-0.8-0.8-1.4-1
	c-0.6-0.2-1.3-0.4-2-0.3c-0.5,0-1.1,0.1-1.6,0.3c-0.5,0.2-0.9,0.4-1.2,0.8c-0.3,0.4-0.5,0.9-0.5,1.4c0,0.4,0.1,0.8,0.3,1.1
	c0.3,0.3,0.6,0.5,1,0.6c0.4,0.2,1,0.3,1.6,0.5c0.9,0.2,1.6,0.4,2.3,0.7c0.6,0.2,1.1,0.5,1.5,0.9c0.4,0.4,0.6,1,0.5,1.5
	c0,0.9-0.4,1.8-1.2,2.4C795.5,97.4,794.4,97.7,793.3,97.6z"/>
<path class="st2" d="M811.1,97.6c-0.9,0-1.9-0.3-2.6-0.8c-0.7-0.5-1.4-1.2-1.9-1.9v7.1h-0.7V86.2h0.7v2.3c0.5-0.7,1.1-1.4,1.9-1.8
	c1.4-0.9,3.1-0.9,4.6-0.2c0.7,0.3,1.2,0.8,1.7,1.3c0.5,0.6,0.9,1.2,1.1,1.9c0.3,0.7,0.4,1.4,0.4,2.1c0,1-0.2,2-0.6,2.9
	c-0.4,0.9-1,1.6-1.8,2.1C813,97.4,812.1,97.6,811.1,97.6z M811,96.9c0.7,0,1.3-0.1,1.9-0.4c0.6-0.3,1.1-0.7,1.4-1.2
	c0.4-0.5,0.7-1.1,0.9-1.6c0.2-0.6,0.3-1.2,0.3-1.9c0-0.7-0.1-1.3-0.4-1.9c-0.2-0.6-0.6-1.2-1-1.6c-0.4-0.5-0.9-0.8-1.5-1.1
	c-0.6-0.3-1.2-0.4-1.9-0.4c-0.5,0-0.9,0.1-1.3,0.3c-0.5,0.2-0.9,0.4-1.3,0.7c-0.4,0.3-0.8,0.6-1.1,1c-0.3,0.4-0.4,0.8-0.5,1.2v3.9
	c0.3,0.6,0.6,1.1,1.1,1.6c0.4,0.5,0.9,0.8,1.5,1.1C809.7,96.8,810.3,96.9,811,96.9z"/>
<path class="st2" d="M823.6,97.6c-1.5,0-2.9-0.6-3.9-1.7c-1.5-1.7-2-4.2-1.1-6.3c0.3-0.7,0.7-1.3,1.2-1.9c0.5-0.5,1.1-1,1.7-1.3
	c1.3-0.6,2.9-0.6,4.2,0c0.7,0.3,1.2,0.7,1.7,1.3c0.5,0.5,0.9,1.2,1.2,1.9c0.6,1.4,0.6,3,0,4.5c-0.3,0.7-0.7,1.3-1.2,1.9
	c-0.5,0.5-1.1,1-1.7,1.3C825.1,97.5,824.4,97.6,823.6,97.6z M818.9,91.8c0,0.9,0.2,1.8,0.6,2.6c0.4,0.7,1,1.4,1.7,1.8
	c1.4,0.9,3.3,0.9,4.7,0c0.7-0.5,1.3-1.1,1.7-1.9c0.4-0.8,0.6-1.7,0.6-2.6c0-0.9-0.2-1.8-0.6-2.5c-0.4-0.7-1-1.4-1.7-1.9
	c-1.4-0.9-3.3-0.9-4.7,0C819.8,88.4,818.9,90.1,818.9,91.8L818.9,91.8z"/>
<path class="st2" d="M830.9,91.8c0-1,0.2-2,0.7-2.9c0.4-0.9,1.1-1.6,1.8-2.1c1.6-1.1,3.7-1.1,5.4,0c0.7,0.5,1.4,1.2,1.8,1.9v-7.1
	h0.7v14.7c0,0.1,0,0.2,0.1,0.3c0.1,0.1,0.2,0.1,0.3,0.1v0.6c-0.3,0.1-0.7-0.1-0.9-0.4c-0.1-0.2-0.2-0.4-0.2-0.6v-1.4
	c-0.5,0.8-1.1,1.4-1.9,1.8c-0.7,0.4-1.6,0.7-2.4,0.7c-0.8,0-1.5-0.2-2.2-0.5c-0.7-0.3-1.2-0.8-1.7-1.3c-0.5-0.6-0.9-1.2-1.1-1.9
	C831.1,93.3,831,92.6,830.9,91.8z M840.7,93.7v-3.9c-0.2-0.6-0.6-1.1-1-1.6c-0.5-0.5-1-0.8-1.6-1.1c-1.1-0.6-2.5-0.6-3.7,0
	c-0.6,0.3-1,0.7-1.4,1.2c-0.4,0.5-0.7,1-0.9,1.7c-0.2,0.6-0.3,1.3-0.3,1.9c0,1.3,0.5,2.6,1.4,3.6c0.4,0.5,0.9,0.8,1.5,1.1
	c0.6,0.3,1.2,0.4,1.8,0.4c0.5,0,0.9-0.1,1.3-0.2c0.5-0.2,0.9-0.4,1.3-0.7c0.4-0.3,0.8-0.6,1.1-1C840.5,94.6,840.6,94.1,840.7,93.7
	L840.7,93.7z"/>
<path class="st2" d="M849.7,97.6c-0.7,0-1.5-0.2-2.1-0.5c-0.7-0.3-1.3-0.7-1.8-1.3c-0.5-0.6-0.9-1.2-1.2-1.9
	c-0.3-0.7-0.4-1.5-0.4-2.3c0-1,0.2-2,0.7-2.9c0.5-0.8,1.1-1.6,1.9-2.1c1.7-1,3.8-1,5.5,0c0.8,0.5,1.5,1.2,2,2.1
	c0.5,0.9,0.7,1.9,0.7,2.9v0.2c0,0.1,0,0.1,0,0.2H845c0.1,0.9,0.3,1.7,0.8,2.5c0.4,0.7,1,1.3,1.7,1.8c0.7,0.4,1.5,0.7,2.3,0.6
	c0.8,0,1.6-0.2,2.3-0.6c0.7-0.4,1.2-0.9,1.5-1.6l0.7,0.2c-0.2,0.5-0.6,1-1,1.4c-0.5,0.4-1,0.8-1.6,1C851,97.5,850.3,97.6,849.7,97.6
	z M844.9,91.5h9.4c0-0.9-0.3-1.7-0.7-2.5c-0.4-0.7-1-1.3-1.7-1.7c-0.7-0.4-1.5-0.6-2.3-0.6c-0.8,0-1.6,0.2-2.3,0.6
	c-0.7,0.4-1.3,1-1.7,1.7C845.2,89.7,844.9,90.6,844.9,91.5L844.9,91.5z M849.8,83.6l-0.5-0.3l1.3-1.7h1L849.8,83.6z"/>
<path class="st2" d="M860.9,97.6c-0.8,0-1.6-0.1-2.4-0.4c-0.8-0.3-1.4-0.8-2-1.4l0.4-0.5c0.5,0.5,1.2,1,1.9,1.3
	c0.7,0.3,1.4,0.4,2.1,0.4c0.9,0,1.8-0.2,2.6-0.7c0.6-0.4,1-1.1,1-1.9c0-0.4-0.1-0.9-0.4-1.2c-0.4-0.3-0.8-0.6-1.3-0.7
	c-0.6-0.2-1.2-0.4-2-0.6c-0.7-0.2-1.3-0.4-1.9-0.6c-0.5-0.2-0.9-0.4-1.2-0.8c-0.3-0.4-0.4-0.9-0.4-1.4c0-0.7,0.2-1.3,0.6-1.8
	c0.4-0.5,0.9-0.8,1.5-1c0.6-0.2,1.3-0.4,2-0.3c0.8,0,1.6,0.1,2.3,0.5c0.6,0.2,1.1,0.6,1.4,1.1l-0.5,0.4c-0.3-0.5-0.8-0.8-1.4-1
	c-0.6-0.2-1.3-0.4-2-0.3c-0.5,0-1.1,0.1-1.6,0.3c-0.5,0.2-0.9,0.4-1.2,0.8c-0.3,0.4-0.5,0.9-0.5,1.4c0,0.4,0.1,0.8,0.3,1.1
	c0.3,0.3,0.6,0.5,1,0.6c0.4,0.2,1,0.3,1.6,0.5c0.9,0.2,1.6,0.4,2.3,0.7c0.6,0.2,1.1,0.5,1.5,0.9c0.4,0.4,0.6,1,0.5,1.5
	c0,0.9-0.4,1.8-1.2,2.4C863.1,97.4,862,97.7,860.9,97.6z"/>
<path class="st2" d="M872.6,91.8c0-1,0.2-2,0.7-2.9c0.4-0.9,1.1-1.6,1.9-2.1c1.6-1.1,3.7-1.1,5.4,0c0.7,0.5,1.4,1.2,1.8,1.9v-7.1
	h0.7v14.7c0,0.1,0,0.2,0.1,0.3c0.1,0.1,0.2,0.1,0.3,0.1v0.6c-0.3,0.1-0.7-0.1-0.9-0.4c-0.1-0.2-0.2-0.4-0.2-0.6v-1.4
	c-0.5,0.8-1.1,1.4-1.9,1.8c-0.7,0.4-1.6,0.7-2.4,0.7c-0.8,0-1.5-0.2-2.2-0.5c-0.7-0.3-1.2-0.8-1.7-1.3c-0.5-0.6-0.9-1.2-1.1-1.9
	C872.7,93.3,872.6,92.6,872.6,91.8z M882.3,93.7v-3.9c-0.2-0.6-0.6-1.1-1-1.6c-0.5-0.5-1-0.8-1.6-1.1c-1.1-0.6-2.5-0.6-3.7,0
	c-0.6,0.3-1,0.7-1.4,1.2c-0.4,0.5-0.7,1-0.9,1.7c-0.2,0.6-0.3,1.2-0.3,1.9c0,0.7,0.1,1.3,0.4,1.9c0.2,0.6,0.6,1.2,1,1.6
	c0.4,0.5,0.9,0.9,1.5,1.1c0.6,0.3,1.2,0.4,1.8,0.4c0.5,0,0.9-0.1,1.3-0.2c0.5-0.2,0.9-0.4,1.3-0.7c0.4-0.3,0.8-0.6,1.1-1
	C882.1,94.6,882.3,94.1,882.3,93.7L882.3,93.7z"/>
<path class="st2" d="M885.6,94.2c0-0.6,0.2-1.2,0.6-1.7c0.4-0.5,1-0.9,1.6-1.1c0.8-0.3,1.6-0.4,2.4-0.4c0.6,0,1.3,0.1,1.9,0.2
	c0.6,0.1,1.2,0.2,1.8,0.4v-1.2c0-1-0.3-1.9-1-2.7c-0.7-0.7-1.6-1.1-2.6-1c-0.6,0-1.2,0.1-1.7,0.3c-0.7,0.3-1.3,0.6-1.9,1l-0.4-0.6
	c0.7-0.5,1.4-0.8,2.1-1.1c0.6-0.2,1.3-0.4,1.9-0.4c1.2-0.1,2.3,0.4,3.1,1.2c0.8,0.9,1.2,2,1.1,3.2v5.9c0,0.1,0,0.3,0.1,0.4
	c0.1,0.1,0.2,0.1,0.3,0.1v0.6h-0.2c-0.1,0-0.1,0-0.2,0c-0.2,0-0.4-0.2-0.5-0.3c-0.1-0.2-0.2-0.4-0.2-0.6v-1c-0.5,0.7-1.2,1.2-2,1.5
	c-0.8,0.4-1.7,0.6-2.6,0.6c-0.7,0-1.3-0.1-1.9-0.5c-0.5-0.3-1-0.7-1.3-1.2C885.8,95.4,885.6,94.8,885.6,94.2z M893.6,95.2
	c0.1-0.2,0.2-0.3,0.3-0.5c0.1-0.1,0.1-0.3,0.1-0.4v-2c-0.6-0.2-1.1-0.4-1.7-0.5c-0.6-0.1-1.2-0.2-1.9-0.2c-1,0-2,0.2-2.9,0.7
	c-0.7,0.4-1.1,1.1-1.1,1.9c0,0.5,0.1,1,0.4,1.4c0.3,0.4,0.7,0.8,1.1,1c0.5,0.3,1,0.4,1.6,0.4c0.8,0,1.7-0.2,2.5-0.5
	C892.6,96.2,893.1,95.7,893.6,95.2z"/>
<path class="st2" d="M903.1,86.8c-1,0-1.9,0.4-2.7,1c-0.8,0.6-1.4,1.5-1.6,2.5v7.1h-0.7V86.2h0.7V89c0.4-0.8,0.9-1.4,1.6-1.9
	c0.6-0.5,1.3-0.8,2.1-0.9h0.4h0.3V86.8z"/>
<path class="st2" d="M910.2,92.6v-6.4h0.7v6.3c0,1.5,0.3,2.6,0.8,3.4c0.5,0.7,1.3,1.2,2.2,1.1c0.7,0,1.3-0.2,2-0.5
	c0.6-0.3,1.2-0.7,1.7-1.3c0.5-0.6,0.8-1.2,1-1.9v-7.2h0.7v10.1c0,0.1,0,0.2,0.1,0.3c0.1,0.1,0.2,0.1,0.3,0.1v0.6h-0.2
	c-0.1,0-0.1,0-0.2,0c-0.2,0-0.4-0.2-0.5-0.3c-0.1-0.2-0.2-0.4-0.2-0.6v-1.9c-0.5,0.9-1.2,1.7-2,2.2c-0.8,0.5-1.8,0.8-2.8,0.8
	c-1.1,0.1-2.1-0.4-2.7-1.3C910.5,95.5,910.2,94.2,910.2,92.6z"/>
<path class="st2" d="M931.9,97.4h-0.7v-6.3c0-1.5-0.2-2.6-0.7-3.4c-0.4-0.7-1.2-1.1-2.1-1.1c-0.7,0-1.4,0.2-2,0.5
	c-0.6,0.3-1.2,0.8-1.7,1.3c-0.5,0.5-0.8,1.2-1.1,1.9v7h-0.7V86.2h0.7V89c0.3-0.6,0.7-1.1,1.2-1.6c0.5-0.4,1.1-0.8,1.7-1
	c0.6-0.3,1.3-0.4,1.9-0.4c0.5,0,1.1,0.1,1.5,0.3c0.4,0.2,0.8,0.5,1,1c0.3,0.5,0.5,1,0.6,1.6c0.1,0.7,0.2,1.5,0.2,2.2L931.9,97.4z"/>
<path class="st2" d="M934.3,94.2c0-0.6,0.2-1.2,0.6-1.7c0.4-0.5,1-0.9,1.6-1.1c0.8-0.3,1.6-0.4,2.4-0.4c0.6,0,1.3,0.1,1.9,0.2
	c0.6,0.1,1.2,0.2,1.8,0.4v-1.2c0-1-0.3-1.9-1-2.7c-0.7-0.7-1.6-1.1-2.6-1c-0.6,0-1.2,0.1-1.7,0.3c-0.7,0.3-1.3,0.6-1.9,1l-0.4-0.6
	c0.7-0.5,1.4-0.8,2.1-1.1c0.6-0.2,1.3-0.4,1.9-0.4c1.2-0.1,2.3,0.4,3.1,1.2c0.8,0.9,1.2,2,1.1,3.2v5.9c0,0.1,0,0.3,0.1,0.4
	c0.1,0.1,0.2,0.1,0.3,0.1v0.6h-0.3c-0.1,0-0.1,0-0.2,0c-0.2,0-0.4-0.2-0.5-0.3c-0.1-0.2-0.2-0.4-0.2-0.6v-1c-0.5,0.7-1.2,1.2-2,1.5
	c-0.8,0.4-1.7,0.6-2.6,0.6c-0.7,0-1.3-0.1-1.9-0.5c-0.5-0.3-1-0.7-1.3-1.2C934.5,95.4,934.3,94.8,934.3,94.2z M942.2,95.2
	c0.1-0.2,0.2-0.3,0.3-0.5c0.1-0.1,0.1-0.3,0.1-0.4v-2c-0.6-0.2-1.2-0.4-1.7-0.5c-0.6-0.1-1.2-0.2-1.9-0.2c-1,0-2,0.2-2.9,0.7
	c-0.7,0.4-1.1,1.1-1.1,1.9c0,0.5,0.1,1,0.4,1.4c0.3,0.4,0.7,0.8,1.1,1c0.5,0.3,1,0.4,1.6,0.4c0.8,0,1.7-0.2,2.5-0.5
	C941.2,96.2,941.8,95.8,942.2,95.2L942.2,95.2z"/>
<path class="st2" d="M968.7,97.4H968v-6.3c0-1.5-0.2-2.6-0.7-3.4c-0.5-0.7-1.3-1.2-2.2-1.1c-1,0-1.9,0.4-2.6,1
	c-0.8,0.7-1.3,1.7-1.6,2.7v7h-0.7v-6.2c0-1.5-0.2-2.6-0.7-3.4c-0.5-0.7-1.3-1.1-2.2-1.1c-1,0-1.9,0.4-2.6,1
	c-0.8,0.7-1.3,1.6-1.6,2.7v7h-0.7V86.2h0.7V89c0.4-0.9,1.1-1.6,1.9-2.2c0.7-0.5,1.6-0.8,2.5-0.8c0.9,0,1.7,0.3,2.3,0.9
	c0.6,0.6,1,1.4,1.1,2.3c0.4-0.9,1.1-1.7,1.9-2.4c0.7-0.5,1.6-0.8,2.5-0.8c0.5,0,1.1,0.1,1.6,0.3c0.4,0.2,0.8,0.6,1.1,1
	c0.3,0.5,0.5,1,0.6,1.6c0.1,0.7,0.2,1.5,0.2,2.2L968.7,97.4z"/>
<path class="st2" d="M971.2,94.2c0-0.6,0.2-1.2,0.6-1.7c0.4-0.5,1-0.9,1.6-1.1c0.8-0.3,1.6-0.4,2.4-0.4c0.6,0,1.3,0.1,1.9,0.2
	c0.6,0.1,1.2,0.2,1.8,0.4v-1.2c0-1-0.3-1.9-1-2.7c-0.7-0.7-1.6-1.1-2.6-1c-0.6,0-1.2,0.1-1.7,0.3c-0.7,0.3-1.3,0.6-1.9,1l-0.4-0.6
	c0.7-0.5,1.4-0.8,2.1-1.1c0.6-0.2,1.3-0.4,1.9-0.4c1.2-0.1,2.3,0.4,3.1,1.2c0.8,0.9,1.2,2,1.1,3.2v5.9c0,0.1,0,0.3,0.1,0.4
	c0.1,0.1,0.2,0.1,0.3,0.1v0.6h-0.3c-0.1,0-0.1,0-0.2,0c-0.2,0-0.4-0.2-0.5-0.3c-0.1-0.2-0.2-0.4-0.2-0.6v-1c-0.5,0.7-1.2,1.2-2,1.5
	c-0.8,0.4-1.7,0.6-2.6,0.6c-0.7,0-1.3-0.1-1.9-0.5c-0.5-0.3-1-0.7-1.3-1.2C971.3,95.4,971.1,94.8,971.2,94.2z M979.1,95.2
	c0.1-0.2,0.2-0.3,0.3-0.5c0.1-0.1,0.1-0.3,0.1-0.4v-2c-0.6-0.2-1.2-0.4-1.7-0.5c-0.6-0.1-1.2-0.2-1.9-0.2c-1,0-2,0.2-2.9,0.7
	c-0.7,0.4-1.1,1.1-1.1,1.9c0,0.5,0.1,1,0.4,1.4c0.3,0.4,0.7,0.8,1.1,1c0.5,0.3,1,0.4,1.6,0.4c0.8,0,1.7-0.2,2.5-0.5
	C978.1,96.2,978.7,95.7,979.1,95.2L979.1,95.2z"/>
<path class="st2" d="M992.5,97.4h-0.7v-6.3c0.1-1.2-0.2-2.3-0.7-3.4c-0.4-0.7-1.2-1.1-2.1-1.1c-0.7,0-1.4,0.2-2,0.5
	c-0.6,0.3-1.2,0.8-1.7,1.3c-0.5,0.5-0.8,1.2-1.1,1.9v7h-0.7V86.2h0.7V89c0.3-0.6,0.7-1.1,1.2-1.6c0.5-0.4,1.1-0.8,1.7-1
	c0.6-0.2,1.3-0.4,2-0.4c0.5,0,1,0.1,1.5,0.3c0.4,0.2,0.8,0.5,1,1c0.3,0.5,0.5,1,0.6,1.6c0.1,0.7,0.2,1.5,0.2,2.2L992.5,97.4z"/>
<path class="st2" d="M1000.6,97.6c-0.7,0-1.5-0.1-2.1-0.5c-0.7-0.3-1.3-0.7-1.7-1.3c-0.5-0.5-0.9-1.2-1.1-1.9c-0.6-1.4-0.6-3,0-4.5
	c0.3-0.7,0.7-1.3,1.2-1.9c0.5-0.5,1.1-1,1.7-1.3c1.3-0.6,2.9-0.6,4.2,0c0.7,0.3,1.2,0.7,1.7,1.3c0.5,0.5,0.9,1.2,1.2,1.9
	c0.3,0.7,0.4,1.5,0.4,2.2c0,0.8-0.1,1.5-0.4,2.2c-0.3,0.7-0.7,1.3-1.2,1.9c-0.5,0.5-1.1,1-1.7,1.3
	C1002,97.5,1001.3,97.6,1000.6,97.6z M995.9,91.9c0,0.9,0.2,1.8,0.6,2.6c0.4,0.7,1,1.4,1.7,1.8c1.4,0.9,3.3,0.9,4.7,0
	c0.7-0.5,1.3-1.1,1.7-1.9c0.4-0.8,0.7-1.7,0.6-2.6c0-0.9-0.2-1.8-0.6-2.5c-0.4-0.8-1-1.4-1.7-1.9c-0.7-0.5-1.5-0.7-2.3-0.7
	c-0.8,0-1.6,0.2-2.3,0.7C996.7,88.4,995.8,90.1,995.9,91.9L995.9,91.9z"/>
<path class="st2" d="M1017.7,97.6c-0.8,0-1.6-0.1-2.4-0.4c-0.8-0.3-1.4-0.8-2-1.4l0.4-0.5c0.5,0.5,1.2,1,1.9,1.3
	c0.7,0.3,1.4,0.4,2.1,0.4c0.9,0,1.8-0.2,2.6-0.7c0.6-0.4,1-1.1,1-1.9c0-0.4-0.1-0.9-0.4-1.2c-0.4-0.3-0.8-0.6-1.3-0.7
	c-0.6-0.2-1.2-0.4-2-0.6c-0.7-0.2-1.3-0.4-1.9-0.6c-0.5-0.2-0.9-0.4-1.2-0.8c-0.3-0.4-0.4-0.9-0.4-1.4c0-0.7,0.2-1.3,0.6-1.8
	c0.4-0.5,0.9-0.8,1.5-1c0.6-0.2,1.3-0.4,2-0.3c0.8,0,1.6,0.1,2.3,0.5c0.6,0.2,1.1,0.6,1.4,1.1l-0.5,0.4c-0.3-0.5-0.8-0.8-1.4-1
	c-0.6-0.2-1.3-0.4-2-0.3c-0.5,0-1.1,0.1-1.6,0.3c-0.5,0.2-0.9,0.4-1.2,0.8c-0.3,0.4-0.5,0.9-0.5,1.4c0,0.4,0.1,0.8,0.3,1.1
	c0.3,0.3,0.6,0.5,1,0.6c0.4,0.2,1,0.3,1.6,0.5c0.9,0.2,1.6,0.4,2.3,0.7c0.6,0.2,1.1,0.5,1.5,0.9c0.4,0.4,0.5,1,0.5,1.5
	c0,0.9-0.4,1.8-1.2,2.4C1019.9,97.4,1018.8,97.7,1017.7,97.6z"/>
<path class="st2" d="M1024.6,83.4v-1.8h0.7v1.8H1024.6z M1024.6,97.4V86.1h0.7v11.3L1024.6,97.4z"/>
<path class="st2" d="M1033.4,97.6c-0.7,0-1.5-0.2-2.1-0.5c-0.7-0.3-1.2-0.8-1.7-1.3c-0.5-0.6-0.9-1.2-1.1-1.9
	c-0.3-0.7-0.4-1.4-0.4-2.1c0-0.8,0.1-1.5,0.4-2.2c0.2-0.7,0.6-1.3,1.1-1.9c0.5-0.5,1-1,1.7-1.3c0.7-0.3,1.4-0.5,2.1-0.5
	c0.9,0,1.8,0.3,2.6,0.8c0.7,0.5,1.4,1.2,1.9,1.9v-2.6h0.7v11.6c0,0.9-0.2,1.7-0.7,2.5c-0.5,0.7-1.1,1.2-1.9,1.5
	c-0.8,0.3-1.7,0.5-2.5,0.5c-1.1,0.1-2.2-0.2-3.1-0.7c-0.7-0.5-1.4-1.1-1.8-1.9l0.6-0.3c0.4,0.8,1.1,1.4,1.9,1.7
	c0.8,0.4,1.6,0.6,2.5,0.6c0.8,0,1.5-0.1,2.2-0.4c0.6-0.3,1.2-0.7,1.6-1.3c0.4-0.6,0.6-1.4,0.6-2.1v-2.6c-0.5,0.7-1.1,1.4-1.9,1.8
	C1035.2,97.4,1034.3,97.6,1033.4,97.6z M1033.6,97c0.5,0,1-0.1,1.5-0.3c0.5-0.2,0.9-0.4,1.3-0.8c0.4-0.3,0.7-0.6,1-1
	c0.2-0.3,0.4-0.7,0.4-1.2v-3.9c-0.2-0.6-0.6-1.2-1-1.6c-0.4-0.5-1-0.8-1.6-1.1c-0.6-0.3-1.2-0.4-1.8-0.4c-0.7,0-1.3,0.1-1.9,0.5
	c-0.6,0.3-1.1,0.7-1.4,1.2c-0.4,0.5-0.7,1.1-0.9,1.7c-0.2,0.6-0.3,1.2-0.3,1.8c0,1.3,0.5,2.6,1.4,3.6c0.4,0.5,0.9,0.9,1.5,1.1
	C1032.3,96.8,1032.9,97,1033.6,97z"/>
<path class="st2" d="M1041.9,92.6v-6.4h0.7v6.3c0,1.5,0.2,2.6,0.7,3.4c0.5,0.7,1.3,1.2,2.2,1.1c0.7,0,1.3-0.2,2-0.5
	c0.6-0.3,1.2-0.7,1.7-1.3c0.5-0.5,0.8-1.2,1-1.9v-7.2h0.7v10.1c0,0.1,0,0.2,0.1,0.3c0.1,0.1,0.2,0.1,0.3,0.1v0.6h-0.3
	c-0.1,0-0.1,0-0.2,0c-0.2,0-0.4-0.2-0.5-0.3c-0.1-0.2-0.2-0.4-0.2-0.6v-1.9c-0.5,0.9-1.2,1.7-2,2.2c-0.8,0.5-1.8,0.8-2.8,0.8
	c-1.1,0.1-2.1-0.4-2.7-1.3C1042.2,95.5,1041.9,94.2,1041.9,92.6z"/>
<path class="st2" d="M1054.6,83.4v-1.8h0.7v1.8H1054.6z M1054.6,97.4V86.1h0.7v11.3L1054.6,97.4z"/>
<path class="st2" d="M1063.6,97.6c-0.7,0-1.5-0.2-2.1-0.5c-0.7-0.3-1.3-0.7-1.8-1.3c-0.5-0.6-0.9-1.2-1.2-1.9
	c-0.3-0.7-0.4-1.5-0.4-2.3c0-1,0.2-2,0.7-2.9c0.5-0.8,1.1-1.6,1.9-2.1c1.7-1,3.8-1,5.5,0c0.8,0.5,1.5,1.2,2,2.1
	c0.5,0.9,0.8,1.9,0.7,2.9v0.2c0,0.1,0,0.1,0,0.2h-10.1c0.1,0.9,0.3,1.7,0.8,2.5c0.4,0.7,1,1.3,1.7,1.8c0.7,0.4,1.5,0.7,2.3,0.6
	c0.8,0,1.6-0.2,2.3-0.6c0.7-0.4,1.2-0.9,1.5-1.6l0.7,0.2c-0.2,0.5-0.6,1-1,1.4c-0.5,0.4-1,0.8-1.6,1
	C1064.9,97.5,1064.2,97.6,1063.6,97.6z M1058.8,91.5h9.4c0-0.9-0.3-1.7-0.7-2.5c-0.4-0.7-1-1.3-1.7-1.7c-0.7-0.4-1.5-0.6-2.3-0.6
	c-0.8,0-1.6,0.2-2.3,0.6c-0.7,0.4-1.3,1-1.7,1.7C1059.1,89.7,1058.8,90.6,1058.8,91.5L1058.8,91.5z"/>
<path class="st2" d="M1080.4,97.4h-0.7v-6.3c0-1.5-0.2-2.6-0.7-3.4c-0.4-0.7-1.2-1.1-2.1-1.1c-0.7,0-1.4,0.2-2,0.5
	c-0.6,0.3-1.2,0.8-1.7,1.3c-0.5,0.5-0.8,1.2-1.1,1.9v7h-0.7V86.2h0.7V89c0.3-0.6,0.7-1.1,1.2-1.6c0.5-0.4,1.1-0.8,1.7-1
	c0.6-0.3,1.3-0.4,1.9-0.4c0.5,0,1.1,0.1,1.5,0.3c0.4,0.2,0.8,0.5,1,1c0.3,0.5,0.5,1,0.6,1.6c0.1,0.7,0.2,1.5,0.2,2.2L1080.4,97.4z"
	/>
<path class="st2" d="M1083,91.8c0-1,0.2-2,0.7-2.9c0.4-0.9,1.1-1.6,1.8-2.1c1.6-1.1,3.7-1.1,5.4,0c0.7,0.5,1.4,1.2,1.8,1.9v-7.1h0.7
	v14.7c0,0.1,0,0.2,0.1,0.3c0.1,0.1,0.2,0.1,0.3,0.1v0.6c-0.3,0.1-0.7-0.1-0.9-0.4c-0.1-0.2-0.2-0.4-0.2-0.6v-1.4
	c-0.5,0.8-1.1,1.4-1.9,1.8c-0.7,0.4-1.6,0.7-2.4,0.7c-0.8,0-1.5-0.2-2.2-0.5c-0.7-0.3-1.2-0.8-1.7-1.3c-0.5-0.6-0.9-1.2-1.1-1.9
	C1083.1,93.3,1083,92.6,1083,91.8z M1092.7,93.7v-3.9c-0.2-0.6-0.6-1.1-1-1.6c-0.5-0.5-1-0.8-1.6-1.1c-1.1-0.6-2.5-0.6-3.7,0
	c-0.6,0.3-1,0.7-1.4,1.2c-0.4,0.5-0.7,1-0.9,1.7c-0.2,0.6-0.3,1.3-0.3,1.9c0,0.7,0.1,1.3,0.4,1.9c0.2,0.6,0.6,1.2,1,1.6
	c0.4,0.5,0.9,0.8,1.5,1.1c0.6,0.3,1.2,0.4,1.8,0.4c0.5,0,0.9-0.1,1.3-0.2c0.5-0.2,0.9-0.4,1.3-0.7c0.4-0.3,0.8-0.6,1.1-1
	C1092.5,94.6,1092.6,94.1,1092.7,93.7z"/>
<path class="st2" d="M1101.6,97.6c-1.5,0-2.9-0.6-3.9-1.7c-1.5-1.7-2-4.2-1.1-6.3c0.3-0.7,0.7-1.3,1.2-1.9c0.5-0.5,1.1-1,1.7-1.3
	c1.3-0.6,2.9-0.6,4.2,0c0.7,0.3,1.2,0.7,1.7,1.3c0.5,0.5,0.9,1.2,1.2,1.9c0.6,1.4,0.6,3,0,4.5c-0.3,0.7-0.7,1.3-1.2,1.9
	c-0.5,0.5-1.1,1-1.7,1.3C1103,97.5,1102.3,97.6,1101.6,97.6z M1096.9,91.9c0,0.9,0.2,1.8,0.6,2.6c0.4,0.7,1,1.4,1.7,1.8
	c1.4,0.9,3.3,0.9,4.7,0c0.7-0.5,1.3-1.1,1.7-1.9c0.4-0.8,0.6-1.7,0.6-2.6c0-0.9-0.2-1.8-0.6-2.5c-0.4-0.7-1-1.4-1.7-1.9
	c-0.7-0.5-1.5-0.7-2.3-0.7c-0.8,0-1.6,0.2-2.3,0.7C1097.7,88.4,1096.9,90.1,1096.9,91.9L1096.9,91.9z"/>
<path class="st2" d="M773.8,123.4h-0.7v-6.3c0-1.5-0.2-2.6-0.7-3.4c-0.4-0.7-1.2-1.1-2.1-1.1c-0.7,0-1.4,0.2-2,0.5
	c-0.6,0.3-1.2,0.8-1.7,1.3c-0.5,0.5-0.8,1.2-1,1.9v7h-0.7v-11.3h0.7v2.8c0.3-0.6,0.7-1.1,1.2-1.6c0.5-0.4,1.1-0.8,1.7-1
	c0.6-0.2,1.3-0.4,1.9-0.4c0.5,0,1.1,0.1,1.5,0.3c0.4,0.2,0.8,0.5,1,1c0.3,0.5,0.5,1,0.6,1.6c0.1,0.7,0.2,1.5,0.2,2.2L773.8,123.4z"
	/>
<path class="st2" d="M777.1,118.6v-6.4h0.7v6.3c0,1.5,0.2,2.6,0.7,3.4c0.5,0.7,1.3,1.2,2.2,1.1c0.7,0,1.4-0.2,2-0.5
	c0.6-0.3,1.2-0.7,1.7-1.3c0.5-0.6,0.8-1.2,1-1.9v-7.2h0.7v10.1c0,0.1,0,0.2,0.1,0.3c0.1,0.1,0.2,0.1,0.3,0.1v0.6h-0.2
	c-0.1,0-0.1,0-0.2,0c-0.2,0-0.4-0.2-0.5-0.3c-0.1-0.2-0.2-0.4-0.2-0.6v-1.9c-0.5,0.9-1.2,1.7-2,2.2c-0.8,0.5-1.8,0.8-2.8,0.8
	c-1.1,0.1-2.1-0.4-2.7-1.3C777.4,121.5,777.1,120.2,777.1,118.6z"/>
<path class="st2" d="M794.4,123.6c-0.7,0-1.5-0.2-2.1-0.5c-0.7-0.3-1.3-0.7-1.8-1.3c-0.5-0.5-0.9-1.2-1.2-1.9
	c-0.3-0.7-0.4-1.5-0.4-2.3c0-1,0.2-2,0.7-2.9c0.5-0.8,1.1-1.6,1.9-2.1c0.8-0.5,1.8-0.8,2.7-0.8c1,0,2,0.3,2.8,0.8
	c0.8,0.5,1.5,1.2,2,2.1c0.5,0.9,0.7,1.9,0.7,2.9v0.2c0,0.1,0,0.1,0,0.2h-10.1c0.1,0.9,0.3,1.7,0.8,2.5c0.4,0.7,1,1.3,1.7,1.8
	c0.7,0.4,1.5,0.7,2.3,0.6c0.8,0,1.6-0.2,2.3-0.6c0.7-0.4,1.2-0.9,1.5-1.6l0.7,0.2c-0.2,0.5-0.6,1-1,1.4c-0.5,0.4-1,0.8-1.6,1
	C795.7,123.5,795.1,123.6,794.4,123.6z M789.7,117.5h9.4c0-0.9-0.3-1.7-0.7-2.5c-0.4-0.7-1-1.3-1.7-1.7c-0.7-0.4-1.5-0.6-2.3-0.6
	c-0.8,0-1.6,0.2-2.3,0.6c-0.7,0.4-1.3,1-1.7,1.7C790,115.8,789.7,116.6,789.7,117.5z"/>
<path class="st2" d="M805.7,123.6c-0.8,0-1.6-0.1-2.4-0.4c-0.8-0.3-1.4-0.8-2-1.4l0.4-0.5c0.5,0.5,1.2,1,1.9,1.3
	c0.7,0.3,1.4,0.4,2.1,0.4c0.9,0,1.8-0.2,2.6-0.7c0.6-0.4,1-1.1,1-1.9c0-0.4-0.1-0.9-0.4-1.2c-0.4-0.3-0.8-0.6-1.3-0.7
	c-0.6-0.2-1.2-0.4-2-0.6c-0.7-0.2-1.3-0.4-1.9-0.6c-0.5-0.2-0.9-0.4-1.2-0.8c-0.3-0.4-0.4-0.9-0.4-1.4c0-0.7,0.2-1.3,0.6-1.8
	c0.4-0.5,0.9-0.8,1.5-1c0.6-0.2,1.3-0.4,2-0.3c0.8,0,1.6,0.1,2.3,0.5c0.6,0.2,1.1,0.6,1.4,1.1l-0.5,0.4c-0.3-0.5-0.8-0.8-1.4-1
	c-0.6-0.2-1.3-0.4-2-0.3c-0.5,0-1.1,0.1-1.6,0.3c-0.5,0.2-0.9,0.4-1.2,0.8c-0.3,0.4-0.5,0.9-0.5,1.4c0,0.4,0.1,0.8,0.3,1.1
	c0.3,0.3,0.6,0.5,1,0.6c0.4,0.1,1,0.3,1.6,0.5c0.9,0.2,1.6,0.4,2.3,0.7c0.6,0.2,1.1,0.5,1.5,0.9c0.4,0.4,0.6,1,0.5,1.5
	c0,0.9-0.4,1.8-1.2,2.4C807.9,123.4,806.8,123.7,805.7,123.6z"/>
<path class="st2" d="M817.3,123l-0.3,0.2c-0.2,0.1-0.5,0.2-0.8,0.3c-0.3,0.1-0.7,0.1-1.1,0.1c-0.4,0-0.7-0.1-1-0.2
	c-0.7-0.3-1.1-1-1-1.7v-9h-1.6v-0.6h1.6v-3.9h0.7v3.9h2.7v0.6h-2.7v8.8c0,0.4,0.2,0.7,0.5,1c0.3,0.2,0.6,0.3,1,0.3
	c0.4,0,0.8-0.1,1.2-0.3c0.2-0.1,0.4-0.2,0.6-0.3L817.3,123z"/>
<path class="st2" d="M824.3,112.8c-1,0-1.9,0.4-2.7,1c-0.8,0.6-1.4,1.5-1.6,2.5v7.1h-0.7v-11.2h0.7v2.8c0.4-0.8,0.9-1.4,1.6-1.9
	c0.6-0.5,1.3-0.8,2.1-0.9c0.1,0,0.3,0,0.4,0h0.3L824.3,112.8z"/>
<path class="st2" d="M825.3,120.2c0-0.6,0.2-1.2,0.6-1.7c0.4-0.5,1-0.9,1.6-1.1c0.8-0.3,1.6-0.4,2.4-0.4c0.6,0,1.3,0.1,1.9,0.2
	c0.6,0.1,1.2,0.2,1.8,0.4v-1.2c0-1-0.3-1.9-1-2.7c-0.7-0.7-1.6-1.1-2.6-1c-0.6,0-1.2,0.1-1.7,0.3c-0.7,0.3-1.3,0.6-1.9,1l-0.4-0.6
	c0.7-0.5,1.4-0.8,2.1-1.1c0.6-0.2,1.3-0.4,1.9-0.4c1.2-0.1,2.3,0.4,3.1,1.2c0.8,0.9,1.2,2,1.1,3.2v5.9c0,0.1,0,0.3,0.1,0.4
	c0.1,0.1,0.2,0.1,0.3,0.1v0.6h-0.2c-0.1,0-0.1,0-0.2,0c-0.2,0-0.4-0.2-0.5-0.3c-0.1-0.2-0.2-0.4-0.2-0.6v-1c-0.5,0.7-1.2,1.2-2,1.6
	c-0.8,0.4-1.7,0.6-2.6,0.6c-0.7,0-1.3-0.1-1.9-0.5c-0.5-0.3-1-0.7-1.3-1.2C825.5,121.4,825.3,120.8,825.3,120.2z M833.3,121.2
	c0.1-0.2,0.2-0.3,0.3-0.5c0.1-0.1,0.1-0.3,0.1-0.4v-2c-0.6-0.2-1.1-0.4-1.7-0.5c-0.6-0.1-1.2-0.2-1.9-0.2c-1,0-2,0.2-2.9,0.7
	c-0.7,0.4-1.1,1.1-1.1,1.9c0,0.5,0.1,1,0.4,1.4c0.3,0.4,0.7,0.8,1.1,1c0.5,0.3,1,0.4,1.6,0.4c0.8,0,1.7-0.2,2.5-0.5
	C832.3,122.2,832.8,121.8,833.3,121.2z"/>
<path class="st2" d="M841.2,123.6c-0.8,0-1.6-0.1-2.4-0.4c-0.8-0.3-1.4-0.8-2-1.4l0.4-0.5c0.5,0.5,1.2,1,1.9,1.3
	c0.7,0.3,1.4,0.4,2.1,0.4c0.9,0,1.8-0.2,2.6-0.7c0.6-0.4,1-1.1,1-1.9c0-0.4-0.1-0.9-0.4-1.2c-0.4-0.3-0.8-0.6-1.3-0.7
	c-0.6-0.2-1.2-0.4-2-0.6c-0.8-0.2-1.4-0.4-1.9-0.6c-0.5-0.2-0.9-0.4-1.2-0.8c-0.3-0.4-0.4-0.9-0.4-1.4c0-0.7,0.2-1.3,0.6-1.8
	c0.4-0.5,0.9-0.8,1.5-1c0.6-0.2,1.3-0.4,2-0.3c0.8,0,1.6,0.1,2.3,0.5c0.6,0.2,1.1,0.6,1.4,1.1l-0.5,0.4c-0.3-0.5-0.8-0.8-1.4-1
	c-0.6-0.2-1.3-0.4-2-0.3c-0.5,0-1.1,0.1-1.6,0.3c-0.5,0.2-0.9,0.4-1.2,0.8c-0.3,0.4-0.5,0.9-0.5,1.4c0,0.4,0.1,0.8,0.3,1.1
	c0.3,0.3,0.6,0.5,1,0.6c0.4,0.1,1,0.3,1.6,0.5c0.9,0.2,1.6,0.4,2.3,0.7c0.6,0.2,1.1,0.5,1.5,0.9c0.4,0.4,0.5,1,0.5,1.5
	c0,0.9-0.4,1.8-1.2,2.4C843.3,123.4,842.3,123.7,841.2,123.6z"/>
<path class="st2" d="M858.7,112.8c-1,0-1.9,0.4-2.7,1c-0.8,0.6-1.4,1.5-1.6,2.5v7.1h-0.7v-11.2h0.7v2.8c0.4-0.8,0.9-1.4,1.6-1.9
	c0.6-0.5,1.3-0.8,2.1-0.9c0.1,0,0.3,0,0.4,0h0.3V112.8z"/>
<path class="st2" d="M865,123.6c-0.7,0-1.5-0.2-2.1-0.5c-0.7-0.3-1.3-0.7-1.8-1.3c-0.5-0.5-0.9-1.2-1.2-1.9
	c-0.3-0.7-0.4-1.5-0.4-2.3c0-1,0.2-2,0.7-2.9c0.5-0.8,1.1-1.6,1.9-2.1c0.8-0.5,1.8-0.8,2.7-0.8c1,0,2,0.3,2.8,0.8
	c1.7,1.1,2.7,3,2.7,5v0.2c0,0.1,0,0.1,0,0.2h-10.1c0.1,0.9,0.3,1.7,0.8,2.5c0.4,0.7,1,1.3,1.7,1.8c0.7,0.4,1.5,0.7,2.3,0.6
	c0.8,0,1.6-0.2,2.3-0.6c0.7-0.4,1.2-0.9,1.5-1.6l0.7,0.2c-0.2,0.5-0.6,1-1,1.4c-0.5,0.4-1,0.8-1.6,1
	C866.3,123.5,865.7,123.6,865,123.6z M860.3,117.5h9.4c0-0.9-0.3-1.7-0.7-2.5c-0.4-0.7-1-1.3-1.7-1.7c-0.7-0.4-1.5-0.6-2.3-0.6
	c-0.8,0-1.6,0.2-2.3,0.6c-0.7,0.4-1.3,1-1.7,1.7C860.6,115.8,860.3,116.6,860.3,117.5z"/>
<path class="st2" d="M872.1,117.8c0-1,0.2-2,0.7-2.9c0.4-0.9,1.1-1.6,1.8-2.1c1.6-1.1,3.7-1.1,5.4,0c0.7,0.5,1.4,1.2,1.8,1.9v-7.1
	h0.7v14.7c0,0.1,0,0.2,0.1,0.3c0.1,0.1,0.2,0.1,0.3,0.1v0.6c-0.1,0-0.3,0-0.4,0c-0.2-0.1-0.4-0.2-0.5-0.3c-0.1-0.2-0.2-0.4-0.2-0.6
	v-1.4c-0.5,0.8-1.1,1.4-1.9,1.8c-1.4,0.8-3.1,0.9-4.6,0.2c-0.7-0.3-1.2-0.8-1.7-1.3c-0.5-0.6-0.9-1.2-1.1-1.9
	C872.2,119.3,872.1,118.6,872.1,117.8z M881.8,119.7v-3.9c-0.2-0.6-0.6-1.1-1-1.6c-0.5-0.5-1-0.8-1.6-1.1c-0.6-0.3-1.2-0.4-1.8-0.4
	c-0.7,0-1.3,0.1-1.9,0.4c-0.6,0.3-1,0.7-1.4,1.2c-0.4,0.5-0.7,1-0.9,1.6c-0.2,0.6-0.3,1.2-0.3,1.9c0,0.7,0.1,1.3,0.4,1.9
	c0.2,0.6,0.6,1.2,1,1.6c0.4,0.5,0.9,0.9,1.5,1.1c0.6,0.3,1.2,0.4,1.8,0.4c0.5,0,0.9-0.1,1.3-0.2c0.5-0.2,0.9-0.4,1.3-0.7
	c0.4-0.3,0.8-0.6,1.1-1C881.6,120.6,881.7,120.1,881.8,119.7L881.8,119.7z"/>
<path class="st2" d="M890.8,123.6c-0.7,0-1.5-0.2-2.1-0.5c-0.7-0.3-1.3-0.7-1.8-1.3c-0.5-0.5-0.9-1.2-1.2-1.9
	c-0.3-0.7-0.4-1.5-0.4-2.3c0-1,0.2-2,0.7-2.9c0.5-0.8,1.1-1.6,1.9-2.1c1.7-1,3.8-1,5.5,0c1.7,1.1,2.7,3,2.7,5v0.2c0,0.1,0,0.1,0,0.2
	h-10.1c0.1,0.9,0.3,1.7,0.8,2.5c0.4,0.7,1,1.3,1.7,1.8c0.7,0.4,1.5,0.7,2.3,0.6c0.8,0,1.6-0.2,2.3-0.6c0.7-0.4,1.2-0.9,1.5-1.6
	l0.7,0.2c-0.2,0.5-0.6,1-1,1.4c-0.5,0.4-1,0.8-1.6,1C892.1,123.5,891.4,123.6,890.8,123.6z M886,117.5h9.4c0-0.9-0.3-1.7-0.7-2.5
	c-0.4-0.7-1-1.3-1.7-1.7c-0.7-0.4-1.5-0.6-2.3-0.6c-0.8,0-1.6,0.2-2.3,0.6c-0.7,0.4-1.3,1-1.7,1.7
	C886.3,115.8,886.1,116.6,886,117.5z"/>
<path class="st2" d="M902,123.6c-0.8,0-1.6-0.1-2.4-0.4c-0.8-0.3-1.4-0.8-2-1.4l0.4-0.5c0.5,0.5,1.2,1,1.9,1.3
	c0.7,0.3,1.4,0.4,2.1,0.4c0.9,0,1.8-0.2,2.6-0.7c0.6-0.4,1-1.1,1-1.9c0-0.4-0.1-0.9-0.4-1.2c-0.4-0.3-0.8-0.6-1.3-0.7
	c-0.6-0.2-1.2-0.4-2-0.6c-0.7-0.2-1.3-0.4-1.9-0.6c-0.5-0.2-0.9-0.4-1.2-0.8c-0.3-0.4-0.4-0.9-0.4-1.4c0-0.7,0.2-1.3,0.6-1.8
	c0.4-0.5,0.9-0.8,1.5-1c0.6-0.2,1.3-0.4,2-0.3c0.8,0,1.6,0.1,2.3,0.5c0.6,0.2,1.1,0.6,1.4,1.1l-0.5,0.4c-0.3-0.5-0.8-0.8-1.4-1
	c-0.6-0.2-1.3-0.4-2-0.3c-0.5,0-1.1,0.1-1.6,0.3c-0.5,0.2-0.9,0.4-1.2,0.8c-0.3,0.4-0.5,0.9-0.5,1.4c0,0.4,0.1,0.8,0.3,1.1
	c0.3,0.3,0.6,0.5,1,0.6c0.4,0.1,1,0.3,1.6,0.5c0.9,0.2,1.6,0.4,2.3,0.7c0.6,0.2,1.1,0.5,1.5,0.9c0.4,0.4,0.6,1,0.5,1.5
	c0,0.9-0.4,1.8-1.2,2.4C904.2,123.4,903.1,123.7,902,123.6z"/>
<path class="st2" d="M914.8,127.5c0.2,0,0.4,0,0.6,0c0.1,0,0.3-0.1,0.4-0.2c0.1-0.1,0.2-0.2,0.3-0.4c0.2-0.4,0.4-0.7,0.6-1.1
	c0.2-0.6,0.6-1.4,1-2.5l-5.1-11.3h0.8l4.7,10.4l4.4-10.4h0.8l-6.5,15.1c-0.1,0.2-0.2,0.3-0.3,0.5c-0.1,0.1-0.2,0.2-0.4,0.3
	c-0.2,0.1-0.3,0.1-0.5,0.1c-0.1,0-0.3,0.1-0.4,0.1c-0.2,0-0.3,0-0.5,0L914.8,127.5z"/>
<path class="st2" d="M935.3,123.6c-0.7,0-1.5-0.2-2.1-0.5c-0.7-0.3-1.3-0.7-1.8-1.3c-0.5-0.5-0.9-1.2-1.2-1.9
	c-0.7-1.7-0.5-3.6,0.3-5.2c0.5-0.8,1.1-1.6,2-2.1c0.8-0.5,1.8-0.8,2.8-0.8c0.9,0,1.8,0.2,2.6,0.7c0.7,0.4,1.3,1.1,1.7,1.9l-0.7,0.3
	c-0.3-0.7-0.9-1.2-1.5-1.6c-0.7-0.4-1.4-0.6-2.2-0.6c-0.8,0-1.7,0.2-2.4,0.7c-0.7,0.4-1.3,1.1-1.7,1.8c-0.4,0.8-0.6,1.7-0.6,2.6
	c0,0.9,0.2,1.8,0.6,2.6c0.4,0.8,1,1.4,1.7,1.9c0.7,0.5,1.5,0.7,2.3,0.7c0.6,0,1.1-0.1,1.6-0.3c0.5-0.2,1-0.5,1.4-0.8
	c0.4-0.3,0.6-0.7,0.8-1.1l0.7,0.2c-0.2,0.5-0.5,1-0.9,1.4c-0.5,0.4-1,0.7-1.6,1C936.6,123.5,936,123.6,935.3,123.6z"/>
<path class="st2" d="M946.9,123.6c-0.7,0-1.5-0.1-2.1-0.5c-0.7-0.3-1.2-0.7-1.7-1.3c-0.5-0.5-0.9-1.2-1.1-1.9c-0.6-1.4-0.6-3,0-4.5
	c0.3-0.7,0.7-1.3,1.2-1.9c0.5-0.5,1.1-1,1.7-1.3c1.3-0.6,2.9-0.6,4.2,0c0.7,0.3,1.2,0.7,1.7,1.3c0.5,0.5,0.9,1.2,1.2,1.9
	c0.6,1.4,0.6,3,0,4.5c-0.3,0.7-0.7,1.3-1.2,1.9c-0.5,0.5-1.1,1-1.7,1.3C948.3,123.5,947.6,123.6,946.9,123.6z M942.2,117.9
	c0,0.9,0.2,1.8,0.6,2.6c0.4,0.7,1,1.4,1.7,1.8c0.7,0.5,1.5,0.7,2.3,0.7c0.8,0,1.7-0.2,2.4-0.7c0.7-0.5,1.3-1.1,1.7-1.9
	c0.4-0.8,0.6-1.7,0.6-2.6c0-0.9-0.2-1.8-0.6-2.6c-0.4-0.7-1-1.4-1.7-1.9c-0.7-0.5-1.5-0.7-2.3-0.7c-0.8,0-1.6,0.2-2.3,0.7
	C943,114.4,942.1,116.1,942.2,117.9L942.2,117.9z"/>
<path class="st2" d="M971.3,123.4h-0.7v-6.3c0-1.5-0.2-2.6-0.7-3.4c-0.5-0.7-1.3-1.1-2.2-1.1c-1,0-1.9,0.4-2.6,1
	c-0.8,0.7-1.3,1.7-1.6,2.7v7h-0.8v-6.3c0-1.5-0.2-2.6-0.7-3.4c-0.5-0.7-1.3-1.1-2.2-1.1c-1,0-1.9,0.4-2.6,1
	c-0.8,0.7-1.3,1.7-1.6,2.7v7H955v-11.3h0.7v2.8c0.4-0.9,1.1-1.6,1.9-2.2c0.7-0.5,1.6-0.8,2.5-0.8c0.9,0,1.7,0.3,2.3,0.9
	c0.6,0.6,1,1.4,1.1,2.3c0.4-0.9,1.1-1.7,1.9-2.4c0.7-0.5,1.6-0.8,2.5-0.8c0.5,0,1.1,0.1,1.5,0.3c0.4,0.2,0.8,0.6,1.1,1
	c0.3,0.5,0.5,1,0.6,1.6c0.1,0.7,0.2,1.5,0.2,2.2L971.3,123.4z"/>
<path class="st2" d="M980,123.6c-0.9,0-1.9-0.3-2.6-0.8c-0.8-0.5-1.4-1.2-1.9-1.9v7.1h-0.7v-15.9h0.7v2.3c0.5-0.7,1.1-1.4,1.9-1.8
	c1.4-0.9,3.1-0.9,4.6-0.2c0.6,0.3,1.2,0.8,1.7,1.3c0.5,0.6,0.9,1.2,1.1,1.9c0.3,0.7,0.4,1.4,0.4,2.1c0,1-0.2,2-0.6,2.9
	c-0.4,0.9-1,1.6-1.8,2.1C981.9,123.4,980.9,123.6,980,123.6z M979.9,122.9c0.7,0,1.3-0.1,1.9-0.4c0.6-0.3,1-0.7,1.4-1.2
	c0.4-0.5,0.7-1,0.9-1.6c0.2-0.6,0.3-1.2,0.3-1.9c0-0.7-0.1-1.3-0.4-1.9c-0.2-0.6-0.6-1.2-1-1.6c-0.4-0.5-0.9-0.8-1.5-1.1
	c-0.6-0.3-1.2-0.4-1.9-0.4c-0.5,0-0.9,0.1-1.3,0.3c-0.5,0.2-0.9,0.4-1.3,0.7c-0.4,0.3-0.8,0.6-1.1,1c-0.3,0.4-0.4,0.8-0.5,1.2v3.9
	c0.3,0.6,0.6,1.1,1.1,1.6c0.4,0.5,0.9,0.8,1.5,1.1C978.6,122.8,979.2,122.9,979.9,122.9L979.9,122.9z"/>
<path class="st2" d="M986.9,120.2c0-0.6,0.2-1.2,0.6-1.7c0.4-0.5,1-0.9,1.6-1.1c0.8-0.3,1.6-0.4,2.4-0.4c0.6,0,1.3,0.1,1.9,0.2
	c0.6,0.1,1.2,0.2,1.8,0.4v-1.2c0-1-0.3-1.9-1-2.7c-0.7-0.7-1.6-1.1-2.6-1c-0.6,0-1.2,0.1-1.7,0.3c-0.7,0.3-1.3,0.6-1.9,1l-0.4-0.6
	c0.7-0.5,1.4-0.8,2.1-1.1c0.6-0.2,1.3-0.4,1.9-0.4c1.2-0.1,2.3,0.4,3.1,1.2c0.8,0.9,1.2,2,1.1,3.2v5.9c0,0.1,0,0.3,0.1,0.4
	c0.1,0.1,0.2,0.1,0.3,0.1v0.6h-0.2c-0.1,0-0.1,0-0.2,0c-0.2,0-0.4-0.2-0.5-0.3c-0.1-0.2-0.2-0.4-0.2-0.6v-1c-0.5,0.7-1.2,1.2-2,1.6
	c-0.8,0.4-1.7,0.6-2.6,0.6c-0.7,0-1.3-0.1-1.9-0.5c-0.5-0.3-1-0.7-1.3-1.2C987.1,121.4,986.9,120.8,986.9,120.2z M994.8,121.2
	c0.1-0.2,0.2-0.3,0.3-0.5c0.1-0.1,0.1-0.3,0.1-0.4v-2c-0.6-0.2-1.1-0.4-1.7-0.5c-0.6-0.1-1.2-0.2-1.9-0.2c-1,0-2,0.2-2.9,0.7
	c-0.7,0.4-1.1,1.1-1.1,1.9c0,0.5,0.1,1,0.4,1.4c0.3,0.4,0.7,0.8,1.1,1c0.5,0.3,1,0.4,1.6,0.4c0.8,0,1.7-0.2,2.5-0.5
	C993.8,122.2,994.4,121.8,994.8,121.2z"/>
<path class="st2" d="M1004.4,112.8c-1,0-1.9,0.4-2.7,1c-0.8,0.6-1.4,1.5-1.6,2.5v7.1h-0.7v-11.2h0.7v2.8c0.4-0.8,0.9-1.4,1.6-1.9
	c0.6-0.5,1.3-0.8,2.1-0.9c0.1,0,0.3,0,0.4,0h0.3L1004.4,112.8z"/>
<path class="st2" d="M1011.2,123l-0.3,0.2c-0.2,0.1-0.5,0.2-0.8,0.3c-0.3,0.1-0.7,0.1-1.1,0.1c-0.4,0-0.7-0.1-1-0.2
	c-0.7-0.3-1.1-1-1-1.7v-9h-1.6v-0.6h1.6v-3.9h0.7v3.9h2.7v0.6h-2.7v8.8c0,0.4,0.2,0.7,0.5,1c0.3,0.2,0.6,0.3,1,0.3
	c0.4,0,0.8-0.1,1.2-0.3c0.2-0.1,0.4-0.2,0.6-0.3L1011.2,123z"/>
<path class="st2" d="M1013.2,109.4v-1.8h0.7v1.8H1013.2z M1013.2,123.4v-11.3h0.7v11.3L1013.2,123.4z"/>
<path class="st2" d="M1022.1,123.6c-0.7,0-1.5-0.2-2.1-0.5c-0.7-0.3-1.3-0.7-1.8-1.3c-0.5-0.5-0.9-1.2-1.2-1.9
	c-0.3-0.7-0.4-1.5-0.4-2.3c0-1,0.2-2,0.7-2.9c0.5-0.8,1.1-1.6,1.9-2.1c1.7-1,3.8-1,5.5,0c0.8,0.5,1.5,1.2,2,2.1
	c0.5,0.9,0.8,1.9,0.7,2.9v0.2c0,0.1,0,0.1,0,0.2h-10.1c0.1,0.9,0.3,1.7,0.8,2.5c0.4,0.7,1,1.3,1.7,1.8c0.7,0.4,1.5,0.7,2.3,0.6
	c0.8,0,1.6-0.2,2.3-0.6c0.7-0.4,1.2-0.9,1.5-1.6l0.7,0.2c-0.2,0.5-0.6,1-1,1.4c-0.5,0.4-1,0.8-1.6,1
	C1023.5,123.5,1022.8,123.6,1022.1,123.6z M1017.4,117.5h9.4c0-0.9-0.3-1.7-0.7-2.5c-0.4-0.7-1-1.3-1.7-1.7
	c-0.7-0.4-1.5-0.6-2.3-0.6c-0.8,0-1.6,0.2-2.3,0.6c-0.7,0.4-1.3,1-1.7,1.7C1017.7,115.8,1017.4,116.6,1017.4,117.5L1017.4,117.5z"/>
<path class="st2" d="M1038.9,123.4h-0.7v-6.3c0.1-1.2-0.2-2.3-0.7-3.4c-0.4-0.7-1.2-1.1-2.1-1.1c-0.7,0-1.4,0.2-2,0.5
	c-0.6,0.3-1.2,0.8-1.7,1.3c-0.5,0.5-0.8,1.2-1.1,1.9v7h-0.7v-11.3h0.7v2.8c0.3-0.6,0.7-1.1,1.2-1.6c0.5-0.4,1.1-0.8,1.7-1
	c0.6-0.2,1.3-0.4,2-0.4c0.5,0,1,0.1,1.5,0.3c0.4,0.2,0.8,0.5,1,1c0.3,0.5,0.5,1,0.6,1.6c0.1,0.7,0.2,1.5,0.2,2.2V123.4z"/>
<path class="st2" d="M1041.5,117.8c0-1,0.2-2,0.7-2.9c0.4-0.9,1.1-1.6,1.8-2.1c1.6-1.1,3.7-1.1,5.4,0c0.7,0.5,1.4,1.2,1.8,1.9v-7.1
	h0.7v14.7c0,0.1,0,0.2,0.1,0.3c0.1,0.1,0.2,0.1,0.3,0.1v0.6c-0.1,0-0.3,0-0.4,0c-0.2-0.1-0.4-0.2-0.5-0.3c-0.1-0.2-0.2-0.4-0.2-0.6
	v-1.4c-0.5,0.8-1.1,1.4-1.9,1.8c-1.4,0.8-3.1,0.9-4.6,0.2c-0.7-0.3-1.2-0.8-1.7-1.3c-0.5-0.6-0.9-1.2-1.1-1.9
	C1041.7,119.3,1041.5,118.6,1041.5,117.8z M1051.2,119.7v-3.9c-0.2-0.6-0.6-1.1-1-1.6c-0.5-0.5-1-0.8-1.6-1.1
	c-0.6-0.3-1.2-0.4-1.8-0.4c-0.7,0-1.3,0.1-1.9,0.4c-0.6,0.3-1,0.7-1.4,1.2c-0.4,0.5-0.7,1-0.9,1.7c-0.2,0.6-0.3,1.2-0.3,1.9
	c0,0.7,0.1,1.3,0.4,1.9c0.2,0.6,0.6,1.2,1,1.6c0.4,0.5,0.9,0.9,1.5,1.1c0.6,0.3,1.2,0.4,1.8,0.4c0.5,0,0.9-0.1,1.3-0.2
	c0.5-0.2,0.9-0.4,1.3-0.7c0.4-0.3,0.8-0.6,1.1-1C1051,120.6,1051.2,120.1,1051.2,119.7L1051.2,119.7z"/>
<path class="st2" d="M1060.2,123.6c-0.7,0-1.5-0.1-2.1-0.5c-0.7-0.3-1.2-0.7-1.7-1.3c-0.5-0.5-0.9-1.2-1.1-1.9c-0.6-1.4-0.6-3,0-4.5
	c0.3-0.7,0.7-1.3,1.2-1.9c0.5-0.5,1.1-1,1.7-1.3c1.3-0.6,2.9-0.6,4.2,0c0.7,0.3,1.2,0.7,1.7,1.3c0.5,0.5,0.9,1.2,1.2,1.9
	c0.6,1.4,0.6,3,0,4.5c-0.3,0.7-0.7,1.3-1.2,1.9c-0.5,0.5-1.1,1-1.7,1.3C1061.6,123.5,1060.9,123.6,1060.2,123.6z M1055.5,117.9
	c0,0.9,0.2,1.8,0.6,2.6c0.4,0.7,1,1.4,1.7,1.8c0.7,0.5,1.5,0.7,2.3,0.7c0.8,0,1.7-0.2,2.4-0.7c0.7-0.5,1.3-1.1,1.7-1.9
	c0.4-0.8,0.6-1.7,0.6-2.6c0-0.9-0.2-1.8-0.6-2.6c-0.4-0.7-1-1.4-1.7-1.9c-0.7-0.5-1.5-0.7-2.3-0.7c-0.8,0-1.6,0.2-2.3,0.7
	C1056.3,114.4,1055.4,116.1,1055.5,117.9L1055.5,117.9z"/>
<path class="st2" d="M1068.7,118.9v-11h0.8v11H1068.7z M1068.7,123.4v-2h0.8v2H1068.7z"/>
<path class="st2" d="M764.4,151.3l5.7,8.7l5.7-8.7h0.8l-6.2,9.5v5.9h-0.8v-5.9l-6.1-9.5H764.4z"/>
<path class="st2" d="M792.6,166.7h-0.7v-6.3c0.1-1.2-0.2-2.3-0.7-3.4c-0.4-0.7-1.2-1.1-2.1-1.1c-0.7,0-1.4,0.2-2,0.5
	c-0.6,0.3-1.2,0.8-1.7,1.3c-0.5,0.5-0.8,1.2-1.1,1.9v7h-0.8v-11.3h0.7v2.8c0.3-0.6,0.7-1.1,1.2-1.6c0.5-0.4,1.1-0.8,1.7-1
	c0.6-0.2,1.3-0.4,1.9-0.4c0.5,0,1.1,0.1,1.5,0.3c0.4,0.2,0.8,0.5,1,1c0.3,0.5,0.5,1,0.6,1.6c0.1,0.7,0.2,1.5,0.2,2.2L792.6,166.7z"
	/>
<path class="st2" d="M800.6,166.9c-0.7,0-1.5-0.1-2.2-0.5c-0.7-0.3-1.2-0.7-1.7-1.3c-1-1.1-1.6-2.6-1.6-4.1c0-0.8,0.1-1.5,0.4-2.2
	c0.3-0.7,0.7-1.3,1.2-1.9c0.5-0.5,1.1-1,1.7-1.3c1.3-0.6,2.9-0.6,4.2,0c0.7,0.3,1.2,0.7,1.7,1.3c0.5,0.5,0.9,1.2,1.2,1.9
	c0.3,0.7,0.4,1.5,0.4,2.2c0,0.8-0.1,1.5-0.4,2.2c-0.3,0.7-0.7,1.3-1.2,1.9c-0.5,0.5-1.1,1-1.7,1.3
	C802.1,166.7,801.3,166.9,800.6,166.9z M795.9,161.1c0,0.9,0.2,1.8,0.6,2.6c0.4,0.7,1,1.4,1.7,1.8c1.4,0.9,3.3,0.9,4.7,0
	c0.7-0.5,1.3-1.1,1.7-1.9c0.4-0.8,0.6-1.7,0.6-2.6c0-0.9-0.2-1.8-0.6-2.5c-0.4-0.8-1-1.4-1.7-1.9c-1.4-0.9-3.3-0.9-4.7,0
	c-0.7,0.5-1.3,1.1-1.7,1.9C796.1,159.3,795.9,160.2,795.9,161.1z"/>
<path class="st2" d="M819,166.2l-0.3,0.2c-0.2,0.1-0.5,0.2-0.8,0.3c-0.4,0.1-0.7,0.1-1.1,0.1c-0.4,0-0.7-0.1-1-0.2
	c-0.3-0.1-0.6-0.4-0.8-0.6c-0.2-0.3-0.3-0.7-0.3-1v-8.9h-1.6v-0.6h1.6v-3.9h0.7v3.9h2.7v0.6h-2.7v8.8c0,0.4,0.2,0.7,0.5,1
	c0.3,0.2,0.6,0.3,1,0.3c0.4,0,0.8-0.1,1.2-0.2c0.2-0.1,0.4-0.2,0.6-0.3L819,166.2z"/>
<path class="st2" d="M825.4,166.9c-0.7,0-1.5-0.2-2.1-0.5c-0.7-0.3-1.3-0.7-1.8-1.3c-0.5-0.5-0.9-1.2-1.2-1.9
	c-0.3-0.7-0.4-1.5-0.4-2.3c0-1,0.2-2,0.7-2.9c0.5-0.8,1.1-1.6,1.9-2.1c1.7-1,3.8-1,5.5,0c0.8,0.5,1.5,1.2,2,2.1
	c0.5,0.9,0.8,1.9,0.7,2.9v0.2c0,0.1,0,0.1,0,0.2h-10.1c0.1,0.9,0.3,1.7,0.8,2.5c0.4,0.7,1,1.3,1.7,1.8c0.7,0.4,1.5,0.7,2.3,0.6
	c0.8,0,1.6-0.2,2.3-0.6c0.7-0.4,1.2-0.9,1.5-1.6l0.7,0.2c-0.2,0.5-0.6,1-1,1.4c-0.5,0.4-1,0.8-1.6,1
	C826.8,166.8,826.1,166.9,825.4,166.9z M820.7,160.7h9.4c0-0.9-0.3-1.7-0.7-2.5c-0.4-0.7-1-1.3-1.7-1.7c-0.7-0.4-1.5-0.6-2.3-0.6
	c-0.8,0-1.6,0.2-2.3,0.6c-0.7,0.4-1.3,1-1.7,1.7C821,159,820.7,159.8,820.7,160.7z"/>
<path class="st2" d="M843.5,166.9c-0.7,0-1.5-0.1-2.1-0.5c-0.7-0.3-1.2-0.7-1.7-1.3c-1-1.1-1.6-2.6-1.6-4.1c0-0.8,0.1-1.5,0.4-2.2
	c0.3-0.7,0.7-1.3,1.2-1.9c0.5-0.5,1.1-1,1.7-1.3c1.3-0.6,2.9-0.6,4.2,0c0.7,0.3,1.2,0.7,1.7,1.3c0.5,0.5,0.9,1.2,1.2,1.9
	c0.3,0.7,0.4,1.5,0.4,2.2c0,0.8-0.1,1.5-0.4,2.2c-0.3,0.7-0.7,1.3-1.2,1.9c-0.5,0.5-1.1,1-1.7,1.3
	C845,166.7,844.3,166.9,843.5,166.9z M838.8,161.1c0,0.9,0.2,1.8,0.6,2.6c0.4,0.7,1,1.4,1.7,1.8c1.4,0.9,3.3,0.9,4.7,0
	c0.7-0.5,1.3-1.1,1.7-1.9c0.4-0.8,0.6-1.7,0.6-2.6c0-0.9-0.2-1.8-0.6-2.5c-0.4-0.8-1-1.4-1.7-1.9c-1.4-0.9-3.3-0.9-4.7,0
	c-0.7,0.5-1.3,1.1-1.7,1.9C839,159.3,838.8,160.2,838.8,161.1L838.8,161.1z"/>
<path class="st2" d="M851.8,150.8h0.8v14c0,0.4,0.1,0.8,0.4,1c0.3,0.2,0.6,0.4,0.9,0.3c0.2,0,0.4,0,0.6-0.1c0.2,0,0.4-0.1,0.6-0.2
	l0.2,0.6c-0.3,0.1-0.5,0.1-0.8,0.2c-0.3,0.1-0.6,0.1-0.8,0.1c-0.5,0-1-0.2-1.3-0.5c-0.4-0.4-0.5-0.9-0.5-1.4V150.8z"/>
<path class="st2" d="M860.3,166.7l-4.8-11.2h0.8l4.4,10.4l4.4-10.4h0.8l-4.8,11.2H860.3z"/>
<path class="st2" d="M868.1,152.7v-1.8h0.7v1.8H868.1z M868.1,166.7v-11.3h0.7v11.3L868.1,166.7z"/>
<path class="st2" d="M871.6,161.1c0-1,0.2-2,0.7-2.9c0.4-0.9,1.1-1.6,1.8-2.1c1.6-1.1,3.7-1.1,5.4,0c0.7,0.5,1.4,1.2,1.8,1.9v-7.1
	h0.7v14.7c0,0.1,0,0.2,0.1,0.3c0.1,0.1,0.2,0.1,0.3,0.1v0.6c-0.1,0-0.3,0-0.4,0c-0.2-0.1-0.4-0.2-0.5-0.3c-0.1-0.2-0.2-0.4-0.2-0.6
	v-1.4c-0.5,0.8-1.1,1.4-1.9,1.8c-0.7,0.4-1.6,0.7-2.4,0.7c-0.8,0-1.5-0.2-2.2-0.5c-0.7-0.3-1.2-0.8-1.7-1.3
	c-0.5-0.6-0.9-1.2-1.1-1.9C871.7,162.5,871.6,161.8,871.6,161.1z M881.3,163V159c-0.2-0.6-0.6-1.1-1-1.6c-0.5-0.5-1-0.8-1.6-1.1
	c-0.6-0.3-1.2-0.4-1.8-0.4c-0.7,0-1.3,0.1-1.9,0.4c-0.6,0.3-1,0.7-1.4,1.2c-0.4,0.5-0.7,1-0.9,1.7c-0.2,0.6-0.3,1.2-0.3,1.9
	c0,1.3,0.5,2.6,1.4,3.6c0.4,0.5,0.9,0.8,1.5,1.1c0.6,0.3,1.2,0.4,1.8,0.4c0.5,0,0.9-0.1,1.3-0.2c0.5-0.2,0.9-0.4,1.3-0.7
	c0.4-0.3,0.8-0.6,1.1-1C881.1,163.8,881.2,163.4,881.3,163z"/>
<path class="st2" d="M890.2,166.9c-0.7,0-1.5-0.2-2.1-0.5c-0.7-0.3-1.3-0.7-1.8-1.3c-0.5-0.5-0.9-1.2-1.2-1.9
	c-0.3-0.7-0.4-1.5-0.4-2.3c0-1,0.2-2,0.7-2.9c0.5-0.8,1.1-1.6,1.9-2.1c1.7-1,3.8-1,5.5,0c1.7,1.1,2.7,3,2.7,5v0.2c0,0.1,0,0.1,0,0.2
	h-10.1c0.1,0.9,0.3,1.7,0.8,2.5c0.4,0.7,1,1.3,1.7,1.8c0.7,0.4,1.5,0.7,2.3,0.6c0.8,0,1.6-0.2,2.3-0.6c0.7-0.4,1.2-0.9,1.5-1.6
	l0.7,0.2c-0.2,0.5-0.6,1-1,1.4c-0.5,0.4-1,0.8-1.6,1C891.6,166.8,890.9,166.9,890.2,166.9z M885.5,160.7h9.4c0-0.9-0.3-1.7-0.7-2.5
	c-0.4-0.7-1-1.3-1.7-1.7c-0.7-0.4-1.5-0.6-2.3-0.6c-0.8,0-1.6,0.2-2.3,0.6c-0.7,0.4-1.3,1-1.7,1.7
	C885.8,159,885.5,159.8,885.5,160.7z"/>
<path class="st2" d="M901.5,166.9c-0.8,0-1.6-0.1-2.4-0.4c-0.8-0.3-1.4-0.8-2-1.4l0.4-0.5c0.5,0.5,1.2,1,1.9,1.3
	c0.7,0.3,1.4,0.4,2.1,0.4c0.9,0,1.8-0.2,2.6-0.7c0.6-0.4,1-1.1,1-1.9c0-0.4-0.1-0.9-0.4-1.2c-0.4-0.3-0.8-0.6-1.3-0.7
	c-0.6-0.2-1.2-0.4-2-0.6c-0.7-0.2-1.3-0.4-1.9-0.6c-0.5-0.2-0.9-0.4-1.2-0.8c-0.3-0.4-0.4-0.9-0.4-1.4c0-0.7,0.2-1.3,0.6-1.8
	c0.4-0.5,0.9-0.8,1.5-1c0.6-0.2,1.3-0.4,2-0.3c0.8,0,1.6,0.1,2.3,0.5c0.6,0.2,1.1,0.6,1.4,1.1l-0.5,0.4c-0.3-0.5-0.8-0.8-1.4-1
	c-0.6-0.2-1.3-0.4-2-0.3c-0.5,0-1.1,0.1-1.6,0.3c-0.5,0.2-0.9,0.4-1.2,0.8c-0.3,0.4-0.5,0.9-0.5,1.4c0,0.4,0.1,0.8,0.3,1.1
	c0.3,0.3,0.6,0.5,1,0.6c0.4,0.2,1,0.3,1.6,0.5c0.9,0.2,1.6,0.4,2.3,0.7c0.6,0.2,1.1,0.5,1.5,0.9c0.4,0.4,0.6,1,0.5,1.5
	c0,0.9-0.4,1.8-1.2,2.4C903.7,166.7,902.6,167,901.5,166.9z"/>
<path class="st2" d="M909,168.4l0.3-1.6h-0.3V165h0.8v1.7l-0.4,1.6H909z"/>
<path class="st2" d="M924.1,166.9c-0.7,0-1.5-0.2-2.1-0.5c-0.7-0.3-1.3-0.7-1.8-1.3c-0.5-0.5-0.9-1.2-1.2-1.9
	c-0.3-0.7-0.4-1.5-0.4-2.3c0-1,0.2-2,0.7-2.9c0.5-0.8,1.1-1.6,1.9-2.1c1.7-1,3.8-1,5.5,0c1.7,1.1,2.7,3,2.7,5v0.2c0,0.1,0,0.1,0,0.2
	h-10.1c0.1,0.9,0.3,1.7,0.8,2.5c0.4,0.7,1,1.3,1.7,1.8c0.7,0.4,1.5,0.7,2.3,0.6c0.8,0,1.6-0.2,2.3-0.6c0.7-0.4,1.2-0.9,1.5-1.6
	l0.7,0.2c-0.2,0.5-0.6,1-1,1.4c-0.5,0.4-1,0.8-1.6,1C925.5,166.8,924.8,166.9,924.1,166.9z M919.4,160.7h9.4c0-0.9-0.3-1.7-0.7-2.5
	c-0.4-0.7-1-1.3-1.7-1.7c-0.7-0.4-1.5-0.6-2.3-0.6c-0.8,0-1.6,0.2-2.3,0.6c-0.7,0.4-1.3,1-1.7,1.7
	C919.7,159,919.4,159.8,919.4,160.7L919.4,160.7z"/>
<path class="st2" d="M935.4,166.9c-0.8,0-1.6-0.1-2.4-0.4c-0.8-0.3-1.4-0.8-2-1.4l0.4-0.5c0.5,0.5,1.2,1,1.9,1.3
	c0.7,0.3,1.4,0.4,2.1,0.4c0.9,0,1.8-0.2,2.6-0.7c0.6-0.4,1-1.1,1-1.9c0-0.4-0.1-0.9-0.4-1.2c-0.4-0.3-0.8-0.6-1.3-0.7
	c-0.6-0.2-1.2-0.4-2-0.6c-0.7-0.2-1.3-0.4-1.9-0.6c-0.5-0.2-0.9-0.4-1.2-0.8c-0.3-0.4-0.4-0.9-0.4-1.4c0-0.7,0.2-1.3,0.6-1.8
	c0.4-0.5,0.9-0.8,1.5-1c0.6-0.2,1.3-0.4,2-0.3c0.8,0,1.6,0.1,2.3,0.5c0.6,0.2,1.1,0.6,1.4,1.1l-0.5,0.4c-0.4-0.5-0.8-0.8-1.4-1
	c-0.6-0.2-1.3-0.4-2-0.3c-0.5,0-1.1,0.1-1.6,0.3c-0.5,0.2-0.9,0.4-1.2,0.8c-0.3,0.4-0.5,0.9-0.5,1.4c0,0.4,0.1,0.8,0.3,1.1
	c0.3,0.3,0.6,0.5,1,0.6c0.4,0.2,1,0.3,1.6,0.5c0.9,0.2,1.6,0.4,2.3,0.7c0.6,0.2,1.1,0.5,1.5,0.9c0.4,0.4,0.6,1,0.5,1.5
	c0,0.9-0.4,1.8-1.2,2.4C937.5,166.6,936.5,166.9,935.4,166.9z"/>
<path class="st2" d="M946.9,166.2l-0.3,0.2c-0.2,0.1-0.5,0.2-0.8,0.3c-0.3,0.1-0.7,0.1-1.1,0.1c-0.4,0-0.7-0.1-1-0.2
	c-0.3-0.1-0.6-0.4-0.8-0.6c-0.2-0.3-0.3-0.7-0.3-1v-8.9h-1.6v-0.6h1.6v-3.9h0.7v3.9h2.7v0.6h-2.7v8.8c0,0.4,0.2,0.7,0.5,1
	c0.3,0.2,0.6,0.3,1,0.3c0.4,0,0.8-0.1,1.2-0.2c0.2-0.1,0.4-0.2,0.6-0.3L946.9,166.2z"/>
<path class="st2" d="M948,163.4c0-0.6,0.2-1.2,0.6-1.7c0.4-0.5,1-0.9,1.6-1.1c0.8-0.3,1.6-0.4,2.4-0.4c0.6,0,1.3,0.1,1.9,0.2
	c0.6,0.1,1.2,0.2,1.8,0.4v-1.2c0-1-0.3-1.9-1-2.7c-0.7-0.7-1.6-1.1-2.6-1c-0.6,0-1.2,0.1-1.7,0.3c-0.7,0.3-1.3,0.6-1.9,1l-0.4-0.6
	c0.7-0.5,1.4-0.8,2.1-1.1c0.6-0.2,1.3-0.4,1.9-0.4c1.2-0.1,2.3,0.4,3.1,1.2c0.8,0.9,1.2,2,1.1,3.2v5.9c0,0.1,0,0.3,0.1,0.4
	c0.1,0.1,0.2,0.1,0.3,0.1v0.6h-0.3c-0.1,0-0.1,0-0.2,0c-0.2,0-0.4-0.2-0.5-0.3c-0.1-0.2-0.2-0.4-0.2-0.6v-1c-0.5,0.7-1.2,1.2-2,1.5
	c-0.8,0.4-1.7,0.6-2.6,0.6c-0.7,0-1.3-0.1-1.9-0.5c-0.5-0.3-1-0.7-1.3-1.2C948.1,164.7,948,164.1,948,163.4z M955.9,164.4
	c0.1-0.2,0.2-0.3,0.3-0.5c0.1-0.1,0.1-0.3,0.1-0.4v-2.1c-0.6-0.2-1.2-0.4-1.7-0.5c-0.6-0.1-1.2-0.2-1.8-0.2c-1,0-2,0.2-2.9,0.7
	c-0.7,0.4-1.1,1.1-1.1,1.9c0,0.5,0.1,1,0.4,1.4c0.3,0.4,0.7,0.8,1.1,1c0.5,0.3,1,0.4,1.6,0.4c0.8,0,1.7-0.2,2.5-0.5
	C954.9,165.5,955.5,165,955.9,164.4L955.9,164.4z"/>
<path class="st2" d="M970.7,166.9c-0.7,0-1.5-0.2-2.1-0.5c-0.7-0.3-1.3-0.7-1.8-1.3c-0.5-0.5-0.9-1.2-1.2-1.9
	c-0.3-0.7-0.4-1.5-0.4-2.3c0-1,0.2-2,0.7-2.9c0.5-0.8,1.1-1.6,1.9-2.1c1.7-1,3.8-1,5.5,0c1.7,1.1,2.7,3,2.7,5v0.2c0,0.1,0,0.1,0,0.2
	H966c0.1,0.9,0.3,1.7,0.8,2.5c0.4,0.7,1,1.3,1.7,1.8c0.7,0.4,1.5,0.7,2.3,0.6c0.8,0,1.6-0.2,2.3-0.6c0.7-0.4,1.2-0.9,1.5-1.6
	l0.7,0.2c-0.2,0.5-0.6,1-1,1.4c-0.5,0.4-1,0.8-1.6,1C972,166.8,971.4,166.9,970.7,166.9z M965.9,160.7h9.4c0-0.9-0.3-1.7-0.7-2.5
	c-0.4-0.7-1-1.3-1.7-1.7c-0.7-0.4-1.5-0.6-2.3-0.6c-0.8,0-1.6,0.2-2.3,0.6c-0.7,0.4-1.3,1-1.7,1.7C966.2,159,966,159.8,965.9,160.7
	L965.9,160.7z"/>
<path class="st2" d="M982,166.9c-0.8,0-1.6-0.1-2.4-0.4c-0.8-0.3-1.4-0.8-2-1.4l0.4-0.5c0.5,0.5,1.2,1,1.9,1.3
	c0.7,0.3,1.4,0.4,2.1,0.4c0.9,0,1.8-0.2,2.6-0.7c0.6-0.4,1-1.1,1-1.9c0-0.4-0.1-0.9-0.4-1.2c-0.4-0.3-0.8-0.6-1.3-0.7
	c-0.6-0.2-1.2-0.4-2-0.6c-0.7-0.2-1.3-0.4-1.9-0.6c-0.5-0.2-0.9-0.4-1.2-0.8c-0.3-0.4-0.4-0.9-0.4-1.4c0-0.7,0.2-1.3,0.6-1.8
	c0.4-0.5,0.9-0.8,1.5-1c0.6-0.2,1.3-0.4,2-0.3c0.8,0,1.6,0.1,2.3,0.5c0.6,0.2,1.1,0.6,1.4,1.1l-0.5,0.4c-0.3-0.5-0.8-0.8-1.4-1
	c-0.6-0.2-1.3-0.4-2-0.3c-0.5,0-1.1,0.1-1.6,0.3c-0.5,0.2-0.9,0.4-1.2,0.8c-0.3,0.4-0.5,0.9-0.5,1.4c0,0.4,0.1,0.8,0.3,1.1
	c0.3,0.3,0.6,0.5,1,0.6c0.4,0.2,1,0.3,1.6,0.5c0.9,0.2,1.6,0.4,2.3,0.7c0.6,0.2,1.1,0.5,1.5,0.9c0.4,0.4,0.6,1,0.5,1.5
	c0,0.9-0.4,1.8-1.2,2.4C984.1,166.6,983,166.9,982,166.9z"/>
<path class="st2" d="M1004.3,166.7h-2.4v-6.3c0.1-0.8-0.1-1.6-0.5-2.3c-0.3-0.5-0.9-0.8-1.5-0.7c-0.5,0-1,0.1-1.4,0.4
	c-0.5,0.2-0.9,0.6-1.2,0.9c-0.4,0.4-0.6,0.8-0.8,1.3v6.7h-2.4v-11.2h2.2v2.2c0.3-0.5,0.7-0.9,1.1-1.3c0.5-0.4,1-0.6,1.6-0.8
	c0.6-0.2,1.2-0.3,1.9-0.3c0.6,0,1.2,0.1,1.7,0.4c0.4,0.2,0.8,0.6,1,1c0.3,0.5,0.4,0.9,0.5,1.5c0.1,0.6,0.2,1.2,0.2,1.8L1004.3,166.7
	z"/>
<path class="st2" d="M1007,162.3v-6.9h2.4v6.4c0,0.8,0.1,1.6,0.6,2.2c0.4,0.5,1,0.8,1.6,0.8c0.5,0,0.9-0.1,1.3-0.3
	c0.4-0.2,0.8-0.5,1.2-0.8c0.4-0.4,0.7-0.8,0.9-1.3v-7h2.4v8.6c0,0.2,0,0.4,0.2,0.6c0.1,0.1,0.3,0.2,0.5,0.2v1.9
	c-0.2,0-0.4,0.1-0.6,0.1c-0.1,0-0.3,0-0.4,0c-0.4,0-0.8-0.1-1.1-0.4c-0.3-0.2-0.5-0.5-0.5-0.9l0-1.1c-0.5,0.8-1.2,1.4-2,1.8
	c-0.8,0.4-1.7,0.7-2.7,0.6c-1,0.1-2-0.4-2.7-1.2C1007.3,164.9,1007,163.8,1007,162.3z"/>
<path class="st2" d="M1025.4,166.9c-0.8,0-1.6-0.1-2.4-0.5c-1.4-0.6-2.5-1.7-3-3.1c-0.3-0.7-0.4-1.4-0.4-2.2c0-1,0.2-2,0.7-2.9
	c0.5-0.9,1.2-1.6,2.1-2.1c0.9-0.5,2-0.8,3.1-0.8c2.1-0.1,4.1,1.1,5.1,2.9c0.5,0.9,0.7,1.8,0.7,2.8c0,0.2,0,0.3,0,0.5
	c0,0.2,0,0.3,0,0.4h-9.1c0,0.6,0.2,1.2,0.6,1.7c0.3,0.5,0.7,0.9,1.2,1.2c0.5,0.3,1,0.4,1.6,0.4c0.6,0,1.3-0.2,1.8-0.5
	c0.5-0.3,0.9-0.7,1.2-1.3l2,0.6c-0.3,0.6-0.6,1.1-1.1,1.5c-0.5,0.5-1.1,0.8-1.8,1C1026.9,166.7,1026.2,166.9,1025.4,166.9z
	 M1022,160.2h6.8c0-0.6-0.2-1.2-0.6-1.7c-1-1.5-3-2-4.5-1.1C1022.7,158,1022.1,159.1,1022,160.2L1022,160.2z"/>
<path class="st2" d="M1037.3,166.9c-0.9,0-1.8-0.2-2.7-0.5c-0.8-0.3-1.6-0.8-2.2-1.4l0.9-1.6c0.6,0.5,1.3,0.9,2,1.2
	c0.6,0.3,1.3,0.4,2,0.4c0.6,0,1.1-0.1,1.6-0.4c0.4-0.2,0.6-0.7,0.6-1.1c0-0.3-0.1-0.6-0.3-0.8c-0.3-0.2-0.6-0.4-1-0.5
	c-0.4-0.1-0.9-0.3-1.5-0.4c-0.7-0.2-1.4-0.5-2-0.8c-0.5-0.2-0.9-0.5-1.2-1c-0.3-0.4-0.4-1-0.4-1.5c0-0.7,0.2-1.3,0.6-1.8
	c0.4-0.5,0.9-0.9,1.6-1.2c0.7-0.3,1.5-0.4,2.3-0.4c0.8,0,1.6,0.1,2.3,0.4c0.7,0.2,1.3,0.7,1.8,1.2l-1,1.6c-0.5-0.4-1-0.8-1.5-1
	c-0.5-0.2-1.1-0.3-1.7-0.3c-0.3,0-0.7,0-1,0.1c-0.3,0.1-0.6,0.2-0.8,0.4c-0.2,0.2-0.3,0.5-0.3,0.9c0,0.3,0.1,0.5,0.3,0.7
	c0.2,0.2,0.5,0.4,0.8,0.5c0.3,0.1,0.8,0.3,1.3,0.4c0.8,0.2,1.5,0.5,2.2,0.8c0.6,0.2,1,0.5,1.4,1c0.4,0.5,0.5,1,0.5,1.6
	c0,1-0.4,1.9-1.2,2.5C1039.5,166.6,1038.4,166.9,1037.3,166.9z"/>
<path class="st2" d="M1050.1,166.1c-0.2,0.1-0.4,0.2-0.8,0.3c-0.3,0.1-0.7,0.2-1,0.3c-0.4,0.1-0.8,0.1-1.2,0.1
	c-0.5,0-0.9-0.1-1.4-0.3c-0.4-0.2-0.8-0.5-1-0.8c-0.3-0.4-0.4-0.9-0.4-1.4v-7.1h-1.6v-1.8h1.5v-3.7h2.4v3.7h2.5v1.8h-2.5v6.3
	c0,0.3,0.1,0.6,0.4,0.9c0.2,0.2,0.5,0.3,0.8,0.3c0.3,0,0.7-0.1,1-0.2c0.3-0.1,0.5-0.2,0.6-0.3L1050.1,166.1z"/>
<path class="st2" d="M1058.1,157.4c-0.9,0-1.7,0.2-2.4,0.6c-0.7,0.4-1.2,1-1.5,1.7v6.9h-2.4v-11.2h2.2v2.4c0.4-0.7,0.9-1.4,1.6-1.9
	c0.6-0.4,1.3-0.7,2-0.8h0.4c0.1,0,0.1,0,0.2,0L1058.1,157.4z"/>
<path class="st2" d="M1059,163.4c0-0.7,0.2-1.3,0.6-1.9c0.4-0.6,1-1,1.7-1.2c0.8-0.3,1.6-0.5,2.5-0.4c0.5,0,1,0,1.5,0.1
	c0.5,0.1,1,0.2,1.4,0.3v-0.7c0-0.7-0.2-1.4-0.7-1.8c-0.6-0.5-1.3-0.7-2.1-0.7c-0.6,0-1.2,0.1-1.8,0.3c-0.6,0.3-1.2,0.6-1.8,1
	l-0.8-1.6c0.7-0.5,1.4-0.9,2.2-1.1c0.8-0.3,1.6-0.4,2.4-0.4c1.3-0.1,2.6,0.4,3.6,1.2c0.9,0.9,1.4,2.1,1.3,3.4v4.2
	c0,0.2,0,0.4,0.2,0.6c0.1,0.1,0.3,0.2,0.5,0.2v1.9c-0.2,0-0.4,0.1-0.6,0.1l-0.4,0c-0.4,0-0.8-0.1-1.2-0.4c-0.3-0.2-0.4-0.5-0.5-0.9
	l-0.1-0.6c-0.5,0.6-1.1,1.2-1.9,1.5c-0.7,0.3-1.5,0.5-2.3,0.5c-0.7,0-1.4-0.1-2-0.5c-0.6-0.3-1-0.7-1.4-1.3
	C1059.2,164.6,1059,164,1059,163.4z M1066.2,164.1c0.1-0.2,0.3-0.4,0.4-0.6c0.1-0.2,0.2-0.3,0.2-0.5v-1.3c-0.4-0.2-0.8-0.3-1.3-0.4
	c-0.4-0.1-0.9-0.1-1.3-0.1c-0.7,0-1.5,0.1-2.1,0.5c-0.5,0.3-0.8,0.8-0.8,1.4c0,0.3,0.1,0.7,0.3,0.9c0.2,0.3,0.5,0.6,0.8,0.7
	c0.4,0.2,0.8,0.3,1.2,0.3c0.5,0,1-0.1,1.5-0.3C1065.5,164.6,1065.9,164.4,1066.2,164.1L1066.2,164.1z"/>
<path class="st2" d="M1080,166.7l-4.3-11.2h2.5l3.2,9.1l3.2-9.1h2.3l-4.3,11.2H1080z"/>
<path class="st2" d="M1093.4,166.9c-0.8,0-1.6-0.1-2.4-0.5c-0.7-0.3-1.3-0.7-1.8-1.3c-0.5-0.5-0.9-1.2-1.2-1.9
	c-0.3-0.7-0.4-1.4-0.4-2.2c0-1,0.2-2,0.7-2.9c0.5-0.9,1.2-1.6,2.1-2.1c0.9-0.5,2-0.8,3.1-0.8c2.1-0.1,4.1,1.1,5.1,2.9
	c0.5,0.9,0.7,1.8,0.7,2.8c0,0.2,0,0.3,0,0.5c0,0.1,0,0.3,0,0.4h-9.1c0,0.6,0.2,1.2,0.6,1.7c0.3,0.5,0.7,0.9,1.2,1.2
	c0.5,0.3,1,0.4,1.6,0.4c0.6,0,1.3-0.2,1.8-0.5c0.5-0.3,0.9-0.7,1.2-1.3l2,0.6c-0.3,0.6-0.6,1.1-1.1,1.5c-0.5,0.5-1.1,0.8-1.8,1
	C1094.9,166.7,1094.1,166.9,1093.4,166.9z M1090,160.2h6.8c0-0.6-0.2-1.2-0.6-1.7c-0.3-0.5-0.7-0.9-1.2-1.1c-1-0.6-2.3-0.6-3.3,0
	C1090.7,158,1090,159.1,1090,160.2L1090,160.2z"/>
<path class="st2" d="M1107.5,157.4c-0.9,0-1.7,0.2-2.4,0.6c-0.7,0.4-1.2,1-1.5,1.7v6.9h-2.4v-11.2h2.2v2.4c0.4-0.7,0.9-1.4,1.6-1.9
	c0.6-0.4,1.3-0.7,2-0.8h0.4c0.1,0,0.1,0,0.2,0L1107.5,157.4z"/>
<path class="st2" d="M1113.2,166.9c-0.9,0-1.8-0.2-2.7-0.5c-0.8-0.3-1.6-0.8-2.2-1.4l0.9-1.6c0.6,0.5,1.3,0.9,2,1.2
	c0.6,0.3,1.3,0.4,2,0.4c0.6,0,1.1-0.1,1.6-0.4c0.4-0.2,0.6-0.7,0.6-1.1c0-0.3-0.1-0.6-0.3-0.8c-0.3-0.2-0.6-0.4-1-0.5
	c-0.4-0.1-0.9-0.3-1.5-0.4c-0.7-0.2-1.4-0.5-2-0.8c-0.5-0.2-0.9-0.5-1.2-1c-0.3-0.4-0.4-1-0.4-1.5c0-0.7,0.2-1.3,0.6-1.8
	c0.4-0.5,0.9-0.9,1.6-1.2c0.7-0.3,1.5-0.4,2.3-0.4c0.8,0,1.6,0.1,2.3,0.4c0.7,0.2,1.3,0.7,1.9,1.2l-1,1.6c-0.4-0.4-1-0.8-1.5-1
	c-0.5-0.2-1.1-0.3-1.7-0.3c-0.3,0-0.7,0-1,0.1c-0.3,0.1-0.6,0.2-0.8,0.4c-0.2,0.2-0.3,0.5-0.3,0.9c0,0.3,0.1,0.5,0.3,0.7
	c0.2,0.2,0.5,0.4,0.8,0.5c0.3,0.1,0.8,0.3,1.3,0.4c0.8,0.2,1.5,0.5,2.2,0.8c0.5,0.2,1,0.5,1.4,1c0.4,0.5,0.5,1,0.5,1.6
	c0,1-0.4,1.9-1.2,2.5C1115.5,166.6,1114.4,166.9,1113.2,166.9z"/>
<path class="st2" d="M1119.9,153.4v-2.6h2.4v2.6H1119.9z M1119.9,166.6v-11.3h2.4v11.3L1119.9,166.6z"/>
<path class="st2" d="M1130.2,166.9c-0.8,0-1.6-0.1-2.4-0.5c-0.7-0.3-1.3-0.7-1.8-1.3c-0.5-0.5-0.9-1.2-1.2-1.9
	c-0.3-0.7-0.4-1.4-0.4-2.2c0-0.8,0.1-1.5,0.4-2.2c0.3-0.7,0.7-1.3,1.2-1.9c0.5-0.5,1.1-1,1.8-1.3c0.8-0.3,1.6-0.5,2.4-0.5
	c0.8,0,1.6,0.1,2.4,0.5c1.4,0.6,2.5,1.7,3,3.1c0.3,0.7,0.4,1.5,0.4,2.2c0,0.8-0.1,1.5-0.4,2.2c-0.3,0.7-0.7,1.3-1.2,1.9
	c-0.5,0.6-1.1,1-1.8,1.3C1131.8,166.7,1131,166.9,1130.2,166.9z M1126.9,161.1c0,0.7,0.1,1.3,0.5,1.9c0.3,0.5,0.7,1,1.2,1.3
	c0.5,0.3,1.1,0.5,1.7,0.5c0.6,0,1.2-0.2,1.7-0.5c0.5-0.3,0.9-0.8,1.2-1.4c0.6-1.2,0.6-2.6,0-3.9c-0.3-0.6-0.7-1-1.2-1.4
	c-0.5-0.3-1.1-0.5-1.7-0.5c-0.6,0-1.2,0.2-1.7,0.5c-0.5,0.3-0.9,0.8-1.2,1.4C1127,159.7,1126.8,160.4,1126.9,161.1L1126.9,161.1z
	 M1131,153.7l-1.5-0.5l1.2-2.4h2.3L1131,153.7z"/>
<path class="st2" d="M1148.3,166.7h-2.4v-6.3c0.1-0.8-0.1-1.6-0.5-2.3c-0.4-0.5-0.9-0.8-1.5-0.7c-0.5,0-1,0.1-1.4,0.4
	c-0.5,0.2-0.9,0.6-1.2,0.9c-0.4,0.4-0.6,0.8-0.8,1.3v6.7h-2.4v-11.2h2.2v2.2c0.3-0.5,0.7-0.9,1.1-1.3c0.5-0.4,1-0.6,1.6-0.8
	c0.6-0.2,1.2-0.3,1.9-0.3c0.6,0,1.2,0.1,1.7,0.4c0.4,0.2,0.8,0.6,1,1c0.3,0.5,0.4,0.9,0.5,1.5c0.1,0.6,0.2,1.2,0.2,1.8L1148.3,166.7
	z"/>
<path class="st2" d="M1308,65.1c-0.7,0-1.3,0.6-1.3,1.3s0.6,1.3,1.3,1.3c0.7,0,1.3-0.6,1.3-1.3C1309.2,65.7,1308.7,65.1,1308,65.1
	L1308,65.1z"/>
<path class="st2" d="M1302.3,75.5c-1.9,0-3.4-1.5-3.4-3.4s1.5-3.4,3.4-3.4c1.9,0,3.4,1.5,3.4,3.4c0,0,0,0,0,0
	C1305.7,73.9,1304.2,75.5,1302.3,75.5z M1302.3,66.7c-2.9,0-5.3,2.4-5.3,5.3c0,2.9,2.4,5.3,5.3,5.3c2.9,0,5.3-2.4,5.3-5.3
	c0,0,0,0,0,0C1307.7,69.1,1305.3,66.7,1302.3,66.7z"/>
<path class="st2" d="M1297.9,63.3c-2.5,0-4.5,2-4.5,4.5v8.6c0,2.5,2,4.5,4.5,4.5h8.7c2.5,0,4.5-2,4.5-4.5v-8.6c0-2.5-2-4.5-4.5-4.5
	H1297.9z M1306.6,82.9h-8.7c-3.6,0-6.5-2.9-6.5-6.5v-8.6c0-3.6,2.9-6.5,6.5-6.5h8.7c3.6,0,6.5,2.9,6.5,6.5v8.6
	C1313.1,80,1310.2,82.9,1306.6,82.9z"/>
<path class="st2" d="M1313,105c-0.7,0.3-1.4,0.5-2.2,0.6c0.4-0.1,0.9-0.7,1.1-1c0.3-0.4,0.6-0.8,0.7-1.3c0,0,0-0.1,0-0.1
	c0,0-0.1,0-0.1,0c-0.8,0.4-1.7,0.8-2.6,1c-0.1,0-0.1,0-0.2-0.1c-0.1-0.1-0.1-0.2-0.2-0.2c-0.4-0.3-0.8-0.6-1.3-0.8
	c-0.6-0.2-1.3-0.4-1.9-0.3c-0.6,0-1.3,0.2-1.8,0.5c-0.6,0.3-1.1,0.7-1.5,1.2c-0.4,0.5-0.7,1.1-0.9,1.8c-0.1,0.6-0.2,1.2,0,1.9
	c0,0.1,0,0.1-0.1,0.1c-3.6-0.5-6.5-1.8-8.9-4.5c-0.1-0.1-0.2-0.1-0.2,0c-1.1,1.6-0.6,4.1,0.8,5.3c0.2,0.2,0.4,0.3,0.6,0.5
	c-0.6,0-1.2-0.2-1.7-0.5c-0.1-0.1-0.2,0-0.2,0.1c0,0.2,0,0.3,0,0.5c0.2,1.6,1.3,3,2.8,3.6c0.2,0.1,0.4,0.1,0.6,0.2
	c-0.6,0.1-1.1,0.1-1.7,0.1c-0.1,0-0.2,0-0.1,0.2c0.7,2,2.3,2.6,3.6,3c0.2,0,0.3,0,0.5,0.1v0c-0.4,0.6-1.8,1.1-2.4,1.3
	c-1.2,0.4-2.4,0.6-3.7,0.5c-0.2,0-0.2,0-0.3,0c-0.1,0,0,0.1,0.1,0.1c0.3,0.2,0.5,0.3,0.8,0.5c0.8,0.4,1.6,0.7,2.5,1
	c4.4,1.2,9.4,0.3,12.7-3c2.6-2.6,3.5-6.2,3.5-9.7c0-0.1,0.2-0.2,0.3-0.3c0.7-0.5,1.2-1.1,1.7-1.8C1313,105.3,1313.1,105.2,1313,105
	L1313,105C1313.1,105,1313.1,105,1313,105L1313,105z"/>
<path class="st2" d="M1311.7,149.5c-0.2,0-0.4,0-0.6,0c-2,0-3.8-1-4.9-2.7v9.1c0,3.7-3,6.7-6.7,6.7c-3.7,0-6.7-3-6.7-6.7
	s3-6.7,6.7-6.7l0,0c0.1,0,0.3,0,0.4,0v3.3c-0.1,0-0.3,0-0.4,0c-1.9,0-3.4,1.5-3.4,3.4c0,1.9,1.5,3.4,3.4,3.4c0,0,0,0,0,0
	c1.9,0,3.5-1.5,3.6-3.4l0-15.4h3.2c0.3,2.8,2.6,5.1,5.4,5.3L1311.7,149.5"/>
<text transform="matrix(1 0 0 1 1327.125 77.0229)" class="st2 st3 st4">mundana.a</text>
<text transform="matrix(1 0 0 1 1412.9453 77.0229)" class="st2 st3 st4">r</text>
<text transform="matrix(1 0 0 1 1327.125 114.1562)" class="st2 st3 st4">mundana.a</text>
<text transform="matrix(1 0 0 1 1412.9453 114.1562)" class="st2 st3 st4">r</text>
<text transform="matrix(1 0 0 1 1327.125 155.832)" class="st2 st3 st4">mundana.a</text>
<text transform="matrix(1 0 0 1 1412.9453 155.832)" class="st2 st3 st4">r</text>
</svg>
