<?xml version="1.0" encoding="utf-8"?>
<!-- Generator: Adobe Illustrator 27.7.0, SVG Export Plug-In . SVG Version: 6.00 Build 0)  -->
<svg version="1.1" id="Capa_1" xmlns="http://www.w3.org/2000/svg" xmlns:xlink="http://www.w3.org/1999/xlink" x="0px" y="0px"
	 viewBox="0 0 1000 215" style="enable-background:new 0 0 1000 215;" xml:space="preserve">
<style type="text/css">
	.st0{fill:#0A3236;}
</style>
<path class="st0" d="M100.8,150V62.1h10.9v14.6c3.9-9.2,14.4-17,28-17s24.2,7.6,27.7,19.9c5.4-12.7,16.2-19.9,30.2-19.9
	c17.2,0,30.4,11.8,30.4,32.1v58.3h-11v-57c0-13.3-7.8-23.6-22.5-23.6C180,69.4,170,81.6,170,96v54h-11V93.1
	c0-13.3-7.6-23.6-22.5-23.6c-14.6,0-24.5,12-24.5,26.6v54L100.8,150z"/>
<path class="st0" d="M279.6,152.5c-22.3,0-32.8-16.6-32.8-35V62.1h11.1v53.5c0,14,6.5,26.9,23.8,26.9c15.7,0,24.9-12,24.9-26.8V62.1
	h11.1v71.2c0,5.6,0.4,11.2,1.1,16.8h-10.5c-0.6-4.1-1-8.2-0.9-12.3v-1.3C303.2,144.9,293.4,152.5,279.6,152.5z"/>
<path class="st0" d="M349.5,150h-11.1V62.1h10.7v14c4.8-9.4,15.1-16.2,28.6-16.2c20.7,0,31.2,14.8,31.2,32.8v57.4h-11.1V94.5
	c0-13.8-6.8-24.7-23.8-24.7c-15.1,0-24.5,12.7-24.5,27.7V150z"/>
<path class="st0" d="M493.9,132.7c-3.9,9-13.6,19.7-30.8,19.7c-24.7,0-40.6-20.3-40.6-46.5c0-25.8,16.2-46.3,40.6-46.3
	c18.8,0,27.5,11.4,30.6,19V16.9h11.1v116.4c-0.1,5.6,0.2,11.2,0.9,16.8h-10.9c-0.6-4.6-0.9-9.2-0.9-13.8L493.9,132.7z M464,142.5
	c18.3,0,29.9-15.9,29.9-36.5c0-20.9-11.6-36.3-29.7-36.3c-18.4,0-30.6,15.1-30.6,36.3C433.6,126.6,445.4,142.5,464,142.5z"/>
<path class="st0" d="M519.2,127.4c0-15,10.3-23.6,26.4-26l23.4-3.5c7.6-1.1,9.2-4.4,9.2-8.5c0-11.6-7.8-19.9-22.1-19.9
	c-14,0-23.2,7.8-24.7,20.5L521,87.7c2-16.8,16-27.9,34.9-27.9c22.9,0,33.4,13.8,33.4,30.6v44.5c-0.1,5.1,0.3,10.1,1.3,15.1h-10.9
	c-0.8-5-1.1-10.1-1.1-15.1c-4.1,8.3-14.6,17.3-30.6,17.3C529.5,152.3,519.2,140.1,519.2,127.4z M578.2,114.1v-10
	c-0.6,0.6-3,1.7-6.5,2.2l-24.5,3.7c-10.3,1.5-16.8,7.2-16.8,16.8c0,8.1,6.6,16,18.8,16C566,142.9,578.2,131.8,578.2,114.1
	L578.2,114.1z"/>
<path class="st0" d="M620.1,150H609V62.1h10.7v14c4.8-9.4,15.1-16.2,28.6-16.2c20.7,0,31.2,14.8,31.2,32.8v57.4h-11V94.5
	c0-13.8-6.8-24.7-23.8-24.7c-15.1,0-24.5,12.7-24.5,27.7L620.1,150z"/>
<path class="st0" d="M692.8,127.4c0-15,10.3-23.6,26.4-26l23.4-3.5c7.6-1.1,9.2-4.4,9.2-8.5c0-11.6-7.8-19.9-22.1-19.9
	c-14,0-23.2,7.8-24.7,20.5l-10.3-2.2c2-16.8,16-27.9,34.9-27.9c22.9,0,33.4,13.8,33.4,30.6v44.5c-0.1,5.1,0.3,10.1,1.3,15.1h-10.9
	c-0.8-5-1.1-10.1-1.1-15.1c-4.1,8.3-14.6,17.3-30.6,17.3C703.1,152.3,692.8,140.1,692.8,127.4z M751.8,114.1v-10
	c-0.5,0.6-3,1.7-6.5,2.2l-24.5,3.7c-10.3,1.5-16.8,7.2-16.8,16.8c0,8.1,6.6,16,18.8,16C739.6,142.9,751.8,131.8,751.8,114.1
	L751.8,114.1z"/>
<path class="st0" d="M807,150.9l-8.5-7c26.5-32,10.4-58.7-1.5-71.7l8.1-7.4C816.7,77.4,839.9,111,807,150.9z"/>
<path class="st0" d="M822.6,165.1l-8-7.5c44.8-47.6,14.8-86.6-0.2-101.2l7.7-7.9C835.6,61.6,875.6,108.8,822.6,165.1z"/>
<path class="st0" d="M838.8,180.8l-7.9-7.7c21.8-22.4,32.5-45.5,31.8-68.8c-1-33-25.2-57.4-32.6-64.1l7.4-8.1
	c8.2,7.4,35,34.5,36.2,71.9C874.5,130.3,862.8,156.1,838.8,180.8z"/>
<path class="st0" d="M856.3,197.7l-7.9-7.6c27.3-28.2,40.6-57.2,39.7-86.5c-1.3-41.7-31.7-72.5-41-80.9l7.4-8.1
	c12.9,11.8,43.2,44,44.6,88.7C900.1,135.5,885.7,167.3,856.3,197.7z"/>
</svg>
