<?xml version="1.0" encoding="UTF-8"?>
<svg xmlns="http://www.w3.org/2000/svg" viewBox="0 0 1157.43 452.2">
  <defs>
    <style>
      .cls-1 {
        letter-spacing: .03em;
      }

      .cls-2, .cls-3 {
        letter-spacing: .04em;
      }

      .cls-4 {
        fill: #e6e6e6;
      }

      .cls-5 {
        fill: #0d71b9;
      }

      .cls-6 {
        letter-spacing: .03em;
      }

      .cls-7 {
        isolation: isolate;
      }

      .cls-7, .cls-8 {
        fill: none;
      }

      .cls-3, .cls-9 {
        fill: #333;
      }

      .cls-10 {
        fill: #c1292e;
      }

      .cls-11 {
        letter-spacing: .03em;
      }

      .cls-8 {
        opacity: .5;
      }

      .cls-9 {
        mix-blend-mode: darken;
      }

      .cls-12 {
        font-family: Raleway-Bold, Raleway;
        font-size: 115.41px;
        font-weight: 700;
      }
    </style>
  </defs>
  <g class="cls-7">
    <g id="Capa_1" data-name="Capa 1">
      <g>
        <rect class="cls-9" x="182.33" y="256.14" width="792.78" height="108.69"/>
        <text class="cls-12" transform="translate(204.38 226.66)"><tspan class="cls-3"><tspan x="0" y="0">publicaciones</tspan></tspan><tspan class="cls-4"><tspan class="cls-2" x="0" y="129.32">e</tspan><tspan class="cls-6" x="73.17" y="129.32">s</tspan><tspan class="cls-2" x="133.88" y="129.32">tudia</tspan><tspan class="cls-11" x="439.83" y="129.32">n</tspan><tspan class="cls-1" x="513.23" y="129.32">tiles</tspan></tspan></text>
      </g>
      <g class="cls-8">
        <g class="cls-8">
          <path class="cls-10" d="m42.51,20.88c.09.46.49.5.82.55,4.69.68,8.33,3.27,11.84,6.23,16.19,13.65,32.39,27.28,48.66,40.84,1.58,1.32,1.48,2.08.22,3.44-2,2.16-3.78,4.54-5.75,6.74-.85.95-.97,1.48.15,2.35,2.66,2.08,5.26,4.27,7.78,6.53.97.87,1.52.79,2.42-.09,6.66-6.56,14.2-11.87,22.67-15.86,13.98-6.6,28.67-9.29,44.06-7.84,20.33,1.92,37.77,10.17,52.14,24.61,11.31,11.36,18.7,24.99,22.21,40.69,3.87,17.3,2.46,34.18-4.21,50.55-5.86,14.37-15.06,26.26-27.58,35.52-15.26,11.28-32.45,16.82-51.38,16.65-15.1-.14-29.18-4.17-42.21-11.92-13.86-8.25-24.36-19.64-31.72-33.88-6.39-12.35-9.44-25.61-9.23-39.52.25-16.34,4.81-31.43,13.83-45.12q1.87-2.84-.77-5.07c-2.09-1.76-4.24-3.47-6.26-5.31-.96-.86-1.49-.95-2.35.15-2.04,2.61-4.27,5.06-6.35,7.64-.71.89-1.15.92-2.03.18-17.18-14.49-34.38-28.95-51.59-43.4-3.39-2.85-5.19-6.68-6.71-10.69-.17-2.01-.35-4.02-.52-6.03.63-.23.46-.86.54-1.29,1.39-7.34,5.49-12.41,12.48-15.13.42-.16,1.02-.2,1.1-.85,2.58-.22,5.17-.45,7.75-.67Zm131.15,197.75c39.07-3.25,68.18-37.76,64.98-77.03-3.19-39.08-38.05-68.45-77.2-65.04-39.09,3.41-68.17,37.99-64.88,77.15,3.28,39.03,37.9,68.18,77.1,64.92ZM33.83,40.96c.24,2.17,1.23,3.7,2.72,4.95,13.77,11.57,27.54,23.14,41.28,34.75.99.84,1.44.65,2.17-.26,1.98-2.47,3.97-4.94,6.12-7.26,1.13-1.22.95-1.78-.26-2.8-13.48-11.25-26.9-22.56-40.35-33.84-.71-.6-1.44-1.22-2.26-1.64-2.22-1.13-4.45-1.03-6.53.39-2.07,1.41-2.97,3.43-2.88,5.71Z"/>
          <path class="cls-10" d="m156.8,195.78c.37-1.21.82-2.4,1.1-3.63.23-1.06.66-1.18,1.67-.91,8.66,2.31,17.08,1.56,25.15-2.35,8.82-4.28,14.95-11.09,18.31-20.3.5-1.37.97-1.59,2.28-1.11,2.26.83,4.59,1.5,6.92,2.15.94.26,1.33.51.91,1.62-6.36,16.99-18.39,27.34-36.17,30.89-6.81,1.36-13.58.84-20.29-.9-1.18-.31-1.48-.7-1.01-1.84.48-1.17.77-2.41,1.14-3.62Z"/>
        </g>
        <g class="cls-8">
          <path class="cls-5" d="m44.29,39.67c.09.46.49.5.82.55,4.69.68,8.33,3.27,11.84,6.23,16.19,13.65,32.39,27.28,48.66,40.84,1.58,1.32,1.48,2.08.22,3.44-2,2.16-3.78,4.54-5.75,6.74-.85.95-.97,1.48.15,2.35,2.66,2.08,5.26,4.27,7.78,6.53.97.87,1.52.79,2.42-.09,6.66-6.56,14.2-11.87,22.67-15.86,13.98-6.6,28.67-9.29,44.06-7.84,20.33,1.92,37.77,10.17,52.14,24.61,11.31,11.36,18.7,24.99,22.21,40.69,3.87,17.3,2.46,34.18-4.21,50.55-5.86,14.37-15.06,26.26-27.58,35.52-15.26,11.28-32.45,16.82-51.38,16.65-15.1-.14-29.18-4.17-42.21-11.92-13.86-8.25-24.36-19.64-31.72-33.88-6.39-12.35-9.44-25.61-9.23-39.52.25-16.34,4.81-31.43,13.83-45.12q1.87-2.84-.77-5.07c-2.09-1.76-4.24-3.47-6.26-5.31-.96-.86-1.49-.95-2.35.15-2.04,2.61-4.27,5.06-6.35,7.64-.71.89-1.15.92-2.03.18-17.18-14.49-34.38-28.95-51.59-43.4-3.39-2.85-5.19-6.68-6.71-10.69-.17-2.01-.35-4.02-.52-6.03.63-.23.46-.86.54-1.29,1.39-7.34,5.49-12.41,12.48-15.13.42-.16,1.02-.2,1.1-.85,2.58-.22,5.17-.45,7.75-.67Zm131.15,197.75c39.07-3.25,68.18-37.76,64.98-77.03-3.19-39.08-38.05-68.45-77.2-65.04-39.09,3.41-68.17,37.99-64.88,77.15,3.28,39.03,37.9,68.18,77.1,64.92ZM35.61,59.75c.24,2.17,1.23,3.7,2.72,4.95,13.77,11.57,27.54,23.14,41.28,34.75.99.84,1.44.65,2.17-.26,1.98-2.47,3.97-4.94,6.12-7.26,1.13-1.22.95-1.78-.26-2.8-13.48-11.25-26.9-22.56-40.35-33.84-.71-.6-1.44-1.22-2.26-1.64-2.22-1.13-4.45-1.03-6.53.39-2.07,1.41-2.97,3.43-2.88,5.71Z"/>
          <path class="cls-5" d="m158.58,214.56c.37-1.21.82-2.4,1.1-3.63.23-1.06.66-1.18,1.67-.91,8.66,2.31,17.08,1.56,25.15-2.35,8.82-4.28,14.95-11.09,18.31-20.3.5-1.37.97-1.59,2.28-1.11,2.26.83,4.59,1.5,6.92,2.15.94.26,1.33.51.91,1.62-6.36,16.99-18.39,27.34-36.17,30.89-6.81,1.36-13.58.84-20.29-.9-1.18-.31-1.48-.7-1.01-1.84.48-1.17.77-2.41,1.14-3.62Z"/>
        </g>
      </g>
    </g>
  </g>
</svg>